M48
METRIC
T1C1.000
T2C1.020
T3C1.300
%
G90
G05
T1
X92.72Y-55.88
X100.32Y-55.88
X100.33Y-102.87
X100.33Y-105.41
X100.33Y-107.95
X100.33Y-110.49
X112.35Y-52.087
X114.89Y-52.087
X116.84Y-60.96
X117.43Y-52.087
X119.38Y-60.96
X119.97Y-52.087
X121.92Y-60.96
X122.51Y-52.087
X124.46Y-60.96
X125.05Y-52.087
X127.59Y-52.087
X130.13Y-52.087
X144.78Y-99.06
X144.78Y-101.6
X144.78Y-104.14
T2
X95.25Y-69.85
X95.25Y-87.63
X97.79Y-69.85
X97.79Y-87.63
X100.33Y-69.85
X100.33Y-87.63
X102.87Y-69.85
X102.87Y-87.63
X105.41Y-69.85
X105.41Y-87.63
X107.95Y-69.85
X107.95Y-87.63
X110.49Y-69.85
X110.49Y-87.63
X113.03Y-69.85
X113.03Y-87.63
X115.57Y-69.85
X115.57Y-87.63
X118.11Y-69.85
X118.11Y-87.63
X120.65Y-69.85
X120.65Y-87.63
X123.19Y-69.85
X123.19Y-87.63
X125.73Y-69.85
X125.73Y-87.63
X128.27Y-69.85
X128.27Y-87.63
X130.81Y-69.85
X130.81Y-87.63
X133.35Y-69.85
X133.35Y-87.63
X135.89Y-69.85
X135.89Y-87.63
X138.43Y-69.85
X138.43Y-87.63
X140.97Y-69.85
X140.97Y-87.63
X143.51Y-69.85
X143.51Y-87.63
T3
X81.32Y-62.34
X81.32Y-74.84
X81.32Y-92.8
X81.32Y-105.3
X86.32Y-62.34
X86.32Y-74.84
X86.32Y-92.8
X86.32Y-105.3
T0
M30
