%TF.GenerationSoftware,KiCad,Pcbnew,(6.0.11)*%
%TF.CreationDate,2024-03-14T23:03:51+01:00*%
%TF.ProjectId,circuit,63697263-7569-4742-9e6b-696361645f70,rev?*%
%TF.SameCoordinates,Original*%
%TF.FileFunction,Legend,Top*%
%TF.FilePolarity,Positive*%
%FSLAX46Y46*%
G04 Gerber Fmt 4.6, Leading zero omitted, Abs format (unit mm)*
G04 Created by KiCad (PCBNEW (6.0.11)) date 2024-03-14 23:03:51*
%MOMM*%
%LPD*%
G01*
G04 APERTURE LIST*
%ADD10C,0.150000*%
%ADD11C,0.250000*%
%ADD12C,0.120000*%
G04 APERTURE END LIST*
D10*
X97520000Y-55880000D02*
G75*
G03*
X97520000Y-55880000I-1000000J0D01*
G01*
D11*
X108090000Y-117518571D02*
X108090000Y-116018571D01*
X108590000Y-117090000D01*
X109090000Y-116018571D01*
X109090000Y-117518571D01*
X110018571Y-117518571D02*
X109875714Y-117447142D01*
X109804285Y-117375714D01*
X109732857Y-117232857D01*
X109732857Y-116804285D01*
X109804285Y-116661428D01*
X109875714Y-116590000D01*
X110018571Y-116518571D01*
X110232857Y-116518571D01*
X110375714Y-116590000D01*
X110447142Y-116661428D01*
X110518571Y-116804285D01*
X110518571Y-117232857D01*
X110447142Y-117375714D01*
X110375714Y-117447142D01*
X110232857Y-117518571D01*
X110018571Y-117518571D01*
X111161428Y-117518571D02*
X111161428Y-116018571D01*
X111161428Y-116590000D02*
X111304285Y-116518571D01*
X111590000Y-116518571D01*
X111732857Y-116590000D01*
X111804285Y-116661428D01*
X111875714Y-116804285D01*
X111875714Y-117232857D01*
X111804285Y-117375714D01*
X111732857Y-117447142D01*
X111590000Y-117518571D01*
X111304285Y-117518571D01*
X111161428Y-117447142D01*
X112518571Y-117518571D02*
X112518571Y-116518571D01*
X112518571Y-116018571D02*
X112447142Y-116090000D01*
X112518571Y-116161428D01*
X112590000Y-116090000D01*
X112518571Y-116018571D01*
X112518571Y-116161428D01*
X113447142Y-117518571D02*
X113304285Y-117447142D01*
X113232857Y-117304285D01*
X113232857Y-116018571D01*
X114590000Y-117447142D02*
X114447142Y-117518571D01*
X114161428Y-117518571D01*
X114018571Y-117447142D01*
X113947142Y-117304285D01*
X113947142Y-116732857D01*
X114018571Y-116590000D01*
X114161428Y-116518571D01*
X114447142Y-116518571D01*
X114590000Y-116590000D01*
X114661428Y-116732857D01*
X114661428Y-116875714D01*
X113947142Y-117018571D01*
X116375714Y-117447142D02*
X116590000Y-117518571D01*
X116947142Y-117518571D01*
X117090000Y-117447142D01*
X117161428Y-117375714D01*
X117232857Y-117232857D01*
X117232857Y-117090000D01*
X117161428Y-116947142D01*
X117090000Y-116875714D01*
X116947142Y-116804285D01*
X116661428Y-116732857D01*
X116518571Y-116661428D01*
X116447142Y-116590000D01*
X116375714Y-116447142D01*
X116375714Y-116304285D01*
X116447142Y-116161428D01*
X116518571Y-116090000D01*
X116661428Y-116018571D01*
X117018571Y-116018571D01*
X117232857Y-116090000D01*
X118447142Y-117447142D02*
X118304285Y-117518571D01*
X118018571Y-117518571D01*
X117875714Y-117447142D01*
X117804285Y-117304285D01*
X117804285Y-116732857D01*
X117875714Y-116590000D01*
X118018571Y-116518571D01*
X118304285Y-116518571D01*
X118447142Y-116590000D01*
X118518571Y-116732857D01*
X118518571Y-116875714D01*
X117804285Y-117018571D01*
X119161428Y-116518571D02*
X119161428Y-117518571D01*
X119161428Y-116661428D02*
X119232857Y-116590000D01*
X119375714Y-116518571D01*
X119590000Y-116518571D01*
X119732857Y-116590000D01*
X119804285Y-116732857D01*
X119804285Y-117518571D01*
X120447142Y-117447142D02*
X120590000Y-117518571D01*
X120875714Y-117518571D01*
X121018571Y-117447142D01*
X121090000Y-117304285D01*
X121090000Y-117232857D01*
X121018571Y-117090000D01*
X120875714Y-117018571D01*
X120661428Y-117018571D01*
X120518571Y-116947142D01*
X120447142Y-116804285D01*
X120447142Y-116732857D01*
X120518571Y-116590000D01*
X120661428Y-116518571D01*
X120875714Y-116518571D01*
X121018571Y-116590000D01*
X121732857Y-117518571D02*
X121732857Y-116518571D01*
X121732857Y-116018571D02*
X121661428Y-116090000D01*
X121732857Y-116161428D01*
X121804285Y-116090000D01*
X121732857Y-116018571D01*
X121732857Y-116161428D01*
X122447142Y-116518571D02*
X122447142Y-117518571D01*
X122447142Y-116661428D02*
X122518571Y-116590000D01*
X122661428Y-116518571D01*
X122875714Y-116518571D01*
X123018571Y-116590000D01*
X123090000Y-116732857D01*
X123090000Y-117518571D01*
X124447142Y-116518571D02*
X124447142Y-117732857D01*
X124375714Y-117875714D01*
X124304285Y-117947142D01*
X124161428Y-118018571D01*
X123947142Y-118018571D01*
X123804285Y-117947142D01*
X124447142Y-117447142D02*
X124304285Y-117518571D01*
X124018571Y-117518571D01*
X123875714Y-117447142D01*
X123804285Y-117375714D01*
X123732857Y-117232857D01*
X123732857Y-116804285D01*
X123804285Y-116661428D01*
X123875714Y-116590000D01*
X124018571Y-116518571D01*
X124304285Y-116518571D01*
X124447142Y-116590000D01*
X85053928Y-117518571D02*
X84339642Y-117518571D01*
X84339642Y-116018571D01*
X86196785Y-117518571D02*
X86196785Y-116732857D01*
X86125357Y-116590000D01*
X85982500Y-116518571D01*
X85696785Y-116518571D01*
X85553928Y-116590000D01*
X86196785Y-117447142D02*
X86053928Y-117518571D01*
X85696785Y-117518571D01*
X85553928Y-117447142D01*
X85482500Y-117304285D01*
X85482500Y-117161428D01*
X85553928Y-117018571D01*
X85696785Y-116947142D01*
X86053928Y-116947142D01*
X86196785Y-116875714D01*
X86911071Y-117518571D02*
X86911071Y-116018571D01*
X86911071Y-116590000D02*
X87053928Y-116518571D01*
X87339642Y-116518571D01*
X87482500Y-116590000D01*
X87553928Y-116661428D01*
X87625357Y-116804285D01*
X87625357Y-117232857D01*
X87553928Y-117375714D01*
X87482500Y-117447142D01*
X87339642Y-117518571D01*
X87053928Y-117518571D01*
X86911071Y-117447142D01*
X90053928Y-116518571D02*
X90053928Y-117518571D01*
X89696785Y-115947142D02*
X89339642Y-117018571D01*
X90268214Y-117018571D01*
X90839642Y-117375714D02*
X90911071Y-117447142D01*
X90839642Y-117518571D01*
X90768214Y-117447142D01*
X90839642Y-117375714D01*
X90839642Y-117518571D01*
X91839642Y-116018571D02*
X91982500Y-116018571D01*
X92125357Y-116090000D01*
X92196785Y-116161428D01*
X92268214Y-116304285D01*
X92339642Y-116590000D01*
X92339642Y-116947142D01*
X92268214Y-117232857D01*
X92196785Y-117375714D01*
X92125357Y-117447142D01*
X91982500Y-117518571D01*
X91839642Y-117518571D01*
X91696785Y-117447142D01*
X91625357Y-117375714D01*
X91553928Y-117232857D01*
X91482500Y-116947142D01*
X91482500Y-116590000D01*
X91553928Y-116304285D01*
X91625357Y-116161428D01*
X91696785Y-116090000D01*
X91839642Y-116018571D01*
X94125357Y-117518571D02*
X94125357Y-116018571D01*
X94696785Y-116018571D01*
X94839642Y-116090000D01*
X94911071Y-116161428D01*
X94982500Y-116304285D01*
X94982500Y-116518571D01*
X94911071Y-116661428D01*
X94839642Y-116732857D01*
X94696785Y-116804285D01*
X94125357Y-116804285D01*
X95625357Y-117518571D02*
X95625357Y-116518571D01*
X95625357Y-116804285D02*
X95696785Y-116661428D01*
X95768214Y-116590000D01*
X95911071Y-116518571D01*
X96053928Y-116518571D01*
X96768214Y-117518571D02*
X96625357Y-117447142D01*
X96553928Y-117375714D01*
X96482500Y-117232857D01*
X96482500Y-116804285D01*
X96553928Y-116661428D01*
X96625357Y-116590000D01*
X96768214Y-116518571D01*
X96982500Y-116518571D01*
X97125357Y-116590000D01*
X97196785Y-116661428D01*
X97268214Y-116804285D01*
X97268214Y-117232857D01*
X97196785Y-117375714D01*
X97125357Y-117447142D01*
X96982500Y-117518571D01*
X96768214Y-117518571D01*
X97911071Y-116518571D02*
X97911071Y-117804285D01*
X97839642Y-117947142D01*
X97696785Y-118018571D01*
X97625357Y-118018571D01*
X97911071Y-116018571D02*
X97839642Y-116090000D01*
X97911071Y-116161428D01*
X97982500Y-116090000D01*
X97911071Y-116018571D01*
X97911071Y-116161428D01*
X99196785Y-117447142D02*
X99053928Y-117518571D01*
X98768214Y-117518571D01*
X98625357Y-117447142D01*
X98553928Y-117304285D01*
X98553928Y-116732857D01*
X98625357Y-116590000D01*
X98768214Y-116518571D01*
X99053928Y-116518571D01*
X99196785Y-116590000D01*
X99268214Y-116732857D01*
X99268214Y-116875714D01*
X98553928Y-117018571D01*
X100553928Y-117447142D02*
X100411071Y-117518571D01*
X100125357Y-117518571D01*
X99982500Y-117447142D01*
X99911071Y-117375714D01*
X99839642Y-117232857D01*
X99839642Y-116804285D01*
X99911071Y-116661428D01*
X99982500Y-116590000D01*
X100125357Y-116518571D01*
X100411071Y-116518571D01*
X100553928Y-116590000D01*
X100982500Y-116518571D02*
X101553928Y-116518571D01*
X101196785Y-116018571D02*
X101196785Y-117304285D01*
X101268214Y-117447142D01*
X101411071Y-117518571D01*
X101553928Y-117518571D01*
X84625357Y-113478571D02*
X84911071Y-113478571D01*
X85053928Y-113550000D01*
X85196785Y-113692857D01*
X85268214Y-113978571D01*
X85268214Y-114478571D01*
X85196785Y-114764285D01*
X85053928Y-114907142D01*
X84911071Y-114978571D01*
X84625357Y-114978571D01*
X84482500Y-114907142D01*
X84339642Y-114764285D01*
X84268214Y-114478571D01*
X84268214Y-113978571D01*
X84339642Y-113692857D01*
X84482500Y-113550000D01*
X84625357Y-113478571D01*
X85911071Y-113978571D02*
X85911071Y-114978571D01*
X85911071Y-114121428D02*
X85982500Y-114050000D01*
X86125357Y-113978571D01*
X86339642Y-113978571D01*
X86482500Y-114050000D01*
X86553928Y-114192857D01*
X86553928Y-114978571D01*
X87839642Y-114907142D02*
X87696785Y-114978571D01*
X87411071Y-114978571D01*
X87268214Y-114907142D01*
X87196785Y-114764285D01*
X87196785Y-114192857D01*
X87268214Y-114050000D01*
X87411071Y-113978571D01*
X87696785Y-113978571D01*
X87839642Y-114050000D01*
X87911071Y-114192857D01*
X87911071Y-114335714D01*
X87196785Y-114478571D01*
X88482500Y-114907142D02*
X88625357Y-114978571D01*
X88911071Y-114978571D01*
X89053928Y-114907142D01*
X89125357Y-114764285D01*
X89125357Y-114692857D01*
X89053928Y-114550000D01*
X88911071Y-114478571D01*
X88696785Y-114478571D01*
X88553928Y-114407142D01*
X88482500Y-114264285D01*
X88482500Y-114192857D01*
X88553928Y-114050000D01*
X88696785Y-113978571D01*
X88911071Y-113978571D01*
X89053928Y-114050000D01*
X89553928Y-113978571D02*
X90125357Y-113978571D01*
X89768214Y-113478571D02*
X89768214Y-114764285D01*
X89839642Y-114907142D01*
X89982500Y-114978571D01*
X90125357Y-114978571D01*
X90625357Y-114978571D02*
X90625357Y-113978571D01*
X90625357Y-113478571D02*
X90553928Y-113550000D01*
X90625357Y-113621428D01*
X90696785Y-113550000D01*
X90625357Y-113478571D01*
X90625357Y-113621428D01*
X92982500Y-114192857D02*
X92482500Y-114192857D01*
X92482500Y-114978571D02*
X92482500Y-113478571D01*
X93196785Y-113478571D01*
X93768214Y-114978571D02*
X93768214Y-113978571D01*
X93768214Y-113478571D02*
X93696785Y-113550000D01*
X93768214Y-113621428D01*
X93839642Y-113550000D01*
X93768214Y-113478571D01*
X93768214Y-113621428D01*
X94696785Y-114978571D02*
X94553928Y-114907142D01*
X94482500Y-114764285D01*
X94482500Y-113478571D01*
X95268214Y-114978571D02*
X95268214Y-113978571D01*
X95268214Y-113478571D02*
X95196785Y-113550000D01*
X95268214Y-113621428D01*
X95339642Y-113550000D01*
X95268214Y-113478571D01*
X95268214Y-113621428D01*
X95982500Y-113978571D02*
X95982500Y-115478571D01*
X95982500Y-114050000D02*
X96125357Y-113978571D01*
X96411071Y-113978571D01*
X96553928Y-114050000D01*
X96625357Y-114121428D01*
X96696785Y-114264285D01*
X96696785Y-114692857D01*
X96625357Y-114835714D01*
X96553928Y-114907142D01*
X96411071Y-114978571D01*
X96125357Y-114978571D01*
X95982500Y-114907142D01*
X97339642Y-113978571D02*
X97339642Y-115478571D01*
X97339642Y-114050000D02*
X97482500Y-113978571D01*
X97768214Y-113978571D01*
X97911071Y-114050000D01*
X97982500Y-114121428D01*
X98053928Y-114264285D01*
X98053928Y-114692857D01*
X97982500Y-114835714D01*
X97911071Y-114907142D01*
X97768214Y-114978571D01*
X97482500Y-114978571D01*
X97339642Y-114907142D01*
X98911071Y-114978571D02*
X98768214Y-114907142D01*
X98696785Y-114835714D01*
X98625357Y-114692857D01*
X98625357Y-114264285D01*
X98696785Y-114121428D01*
X98768214Y-114050000D01*
X98911071Y-113978571D01*
X99125357Y-113978571D01*
X99268214Y-114050000D01*
X99339642Y-114121428D01*
X99411071Y-114264285D01*
X99411071Y-114692857D01*
X99339642Y-114835714D01*
X99268214Y-114907142D01*
X99125357Y-114978571D01*
X98911071Y-114978571D01*
X131008571Y-116518571D02*
X131365714Y-117518571D01*
X131722857Y-116518571D01*
X132580000Y-116018571D02*
X132722857Y-116018571D01*
X132865714Y-116090000D01*
X132937142Y-116161428D01*
X133008571Y-116304285D01*
X133080000Y-116590000D01*
X133080000Y-116947142D01*
X133008571Y-117232857D01*
X132937142Y-117375714D01*
X132865714Y-117447142D01*
X132722857Y-117518571D01*
X132580000Y-117518571D01*
X132437142Y-117447142D01*
X132365714Y-117375714D01*
X132294285Y-117232857D01*
X132222857Y-116947142D01*
X132222857Y-116590000D01*
X132294285Y-116304285D01*
X132365714Y-116161428D01*
X132437142Y-116090000D01*
X132580000Y-116018571D01*
D10*
X93599047Y-53411428D02*
X94360952Y-53411428D01*
%TO.C,J6*%
X94591428Y-58348571D02*
X94734285Y-58396190D01*
X94781904Y-58443809D01*
X94829523Y-58539047D01*
X94829523Y-58681904D01*
X94781904Y-58777142D01*
X94734285Y-58824761D01*
X94639047Y-58872380D01*
X94258095Y-58872380D01*
X94258095Y-57872380D01*
X94591428Y-57872380D01*
X94686666Y-57920000D01*
X94734285Y-57967619D01*
X94781904Y-58062857D01*
X94781904Y-58158095D01*
X94734285Y-58253333D01*
X94686666Y-58300952D01*
X94591428Y-58348571D01*
X94258095Y-58348571D01*
X95686666Y-58205714D02*
X95686666Y-58872380D01*
X95258095Y-58205714D02*
X95258095Y-58729523D01*
X95305714Y-58824761D01*
X95400952Y-58872380D01*
X95543809Y-58872380D01*
X95639047Y-58824761D01*
X95686666Y-58777142D01*
X96067619Y-58205714D02*
X96591428Y-58205714D01*
X96067619Y-58872380D01*
X96591428Y-58872380D01*
X96877142Y-58205714D02*
X97400952Y-58205714D01*
X96877142Y-58872380D01*
X97400952Y-58872380D01*
X98162857Y-58824761D02*
X98067619Y-58872380D01*
X97877142Y-58872380D01*
X97781904Y-58824761D01*
X97734285Y-58729523D01*
X97734285Y-58348571D01*
X97781904Y-58253333D01*
X97877142Y-58205714D01*
X98067619Y-58205714D01*
X98162857Y-58253333D01*
X98210476Y-58348571D01*
X98210476Y-58443809D01*
X97734285Y-58539047D01*
X98639047Y-58872380D02*
X98639047Y-58205714D01*
X98639047Y-58396190D02*
X98686666Y-58300952D01*
X98734285Y-58253333D01*
X98829523Y-58205714D01*
X98924761Y-58205714D01*
X99939047Y-53411428D02*
X100700952Y-53411428D01*
X100320000Y-53792380D02*
X100320000Y-53030476D01*
%TO.C,J5*%
X83748571Y-70913333D02*
X83796190Y-70770476D01*
X83843809Y-70722857D01*
X83939047Y-70675238D01*
X84081904Y-70675238D01*
X84177142Y-70722857D01*
X84224761Y-70770476D01*
X84272380Y-70865714D01*
X84272380Y-71246666D01*
X83272380Y-71246666D01*
X83272380Y-70913333D01*
X83320000Y-70818095D01*
X83367619Y-70770476D01*
X83462857Y-70722857D01*
X83558095Y-70722857D01*
X83653333Y-70770476D01*
X83700952Y-70818095D01*
X83748571Y-70913333D01*
X83748571Y-71246666D01*
X83605714Y-69818095D02*
X84272380Y-69818095D01*
X83605714Y-70246666D02*
X84129523Y-70246666D01*
X84224761Y-70199047D01*
X84272380Y-70103809D01*
X84272380Y-69960952D01*
X84224761Y-69865714D01*
X84177142Y-69818095D01*
X83605714Y-69484761D02*
X83605714Y-69103809D01*
X83272380Y-69341904D02*
X84129523Y-69341904D01*
X84224761Y-69294285D01*
X84272380Y-69199047D01*
X84272380Y-69103809D01*
X83605714Y-68913333D02*
X83605714Y-68532380D01*
X83272380Y-68770476D02*
X84129523Y-68770476D01*
X84224761Y-68722857D01*
X84272380Y-68627619D01*
X84272380Y-68532380D01*
X84272380Y-68056190D02*
X84224761Y-68151428D01*
X84177142Y-68199047D01*
X84081904Y-68246666D01*
X83796190Y-68246666D01*
X83700952Y-68199047D01*
X83653333Y-68151428D01*
X83605714Y-68056190D01*
X83605714Y-67913333D01*
X83653333Y-67818095D01*
X83700952Y-67770476D01*
X83796190Y-67722857D01*
X84081904Y-67722857D01*
X84177142Y-67770476D01*
X84224761Y-67818095D01*
X84272380Y-67913333D01*
X84272380Y-68056190D01*
X83605714Y-67294285D02*
X84272380Y-67294285D01*
X83700952Y-67294285D02*
X83653333Y-67246666D01*
X83605714Y-67151428D01*
X83605714Y-67008571D01*
X83653333Y-66913333D01*
X83748571Y-66865714D01*
X84272380Y-66865714D01*
X83367619Y-66437142D02*
X83320000Y-66389523D01*
X83272380Y-66294285D01*
X83272380Y-66056190D01*
X83320000Y-65960952D01*
X83367619Y-65913333D01*
X83462857Y-65865714D01*
X83558095Y-65865714D01*
X83700952Y-65913333D01*
X84272380Y-66484761D01*
X84272380Y-65865714D01*
%TO.C,U0*%
X115999047Y-79192380D02*
X115665714Y-78716190D01*
X115427619Y-79192380D02*
X115427619Y-78192380D01*
X115808571Y-78192380D01*
X115903809Y-78240000D01*
X115951428Y-78287619D01*
X115999047Y-78382857D01*
X115999047Y-78525714D01*
X115951428Y-78620952D01*
X115903809Y-78668571D01*
X115808571Y-78716190D01*
X115427619Y-78716190D01*
X116427619Y-79192380D02*
X116427619Y-78192380D01*
X116808571Y-78192380D01*
X116903809Y-78240000D01*
X116951428Y-78287619D01*
X116999047Y-78382857D01*
X116999047Y-78525714D01*
X116951428Y-78620952D01*
X116903809Y-78668571D01*
X116808571Y-78716190D01*
X116427619Y-78716190D01*
X117427619Y-79192380D02*
X117427619Y-78192380D01*
X118665714Y-79192380D02*
X118665714Y-78192380D01*
X119046666Y-78192380D01*
X119141904Y-78240000D01*
X119189523Y-78287619D01*
X119237142Y-78382857D01*
X119237142Y-78525714D01*
X119189523Y-78620952D01*
X119141904Y-78668571D01*
X119046666Y-78716190D01*
X118665714Y-78716190D01*
X119665714Y-79192380D02*
X119665714Y-78525714D01*
X119665714Y-78192380D02*
X119618095Y-78240000D01*
X119665714Y-78287619D01*
X119713333Y-78240000D01*
X119665714Y-78192380D01*
X119665714Y-78287619D01*
X120570476Y-79144761D02*
X120475238Y-79192380D01*
X120284761Y-79192380D01*
X120189523Y-79144761D01*
X120141904Y-79097142D01*
X120094285Y-79001904D01*
X120094285Y-78716190D01*
X120141904Y-78620952D01*
X120189523Y-78573333D01*
X120284761Y-78525714D01*
X120475238Y-78525714D01*
X120570476Y-78573333D01*
X121141904Y-79192380D02*
X121046666Y-79144761D01*
X120999047Y-79097142D01*
X120951428Y-79001904D01*
X120951428Y-78716190D01*
X120999047Y-78620952D01*
X121046666Y-78573333D01*
X121141904Y-78525714D01*
X121284761Y-78525714D01*
X121380000Y-78573333D01*
X121427619Y-78620952D01*
X121475238Y-78716190D01*
X121475238Y-79001904D01*
X121427619Y-79097142D01*
X121380000Y-79144761D01*
X121284761Y-79192380D01*
X121141904Y-79192380D01*
X122570476Y-78192380D02*
X122808571Y-79192380D01*
X122999047Y-78478095D01*
X123189523Y-79192380D01*
X123427619Y-78192380D01*
X118231218Y-66626903D02*
X118258155Y-66707715D01*
X118338967Y-66788528D01*
X118446717Y-66842402D01*
X118554467Y-66842402D01*
X118635279Y-66815465D01*
X118769966Y-66734653D01*
X118850778Y-66653841D01*
X118931590Y-66519154D01*
X118958528Y-66438341D01*
X118958528Y-66330592D01*
X118904653Y-66222842D01*
X118850778Y-66168967D01*
X118743028Y-66115093D01*
X118689154Y-66115093D01*
X118500592Y-66303654D01*
X118608341Y-66411404D01*
X118500592Y-65818781D02*
X117934906Y-66384467D01*
X117719407Y-66168967D01*
X117692470Y-66088155D01*
X117692470Y-66034280D01*
X117719407Y-65953468D01*
X117800219Y-65872656D01*
X117881032Y-65845719D01*
X117934906Y-65845719D01*
X118015719Y-65872656D01*
X118231218Y-66088155D01*
X117530845Y-65495532D02*
X117557783Y-65576345D01*
X117557783Y-65630219D01*
X117530845Y-65711032D01*
X117503908Y-65737969D01*
X117423096Y-65764906D01*
X117369221Y-65764906D01*
X117288409Y-65737969D01*
X117180659Y-65630219D01*
X117153722Y-65549407D01*
X117153722Y-65495532D01*
X117180659Y-65414720D01*
X117207597Y-65387783D01*
X117288409Y-65360845D01*
X117342284Y-65360845D01*
X117423096Y-65387783D01*
X117530845Y-65495532D01*
X117611658Y-65522470D01*
X117665532Y-65522470D01*
X117746345Y-65495532D01*
X117854094Y-65387783D01*
X117881032Y-65306971D01*
X117881032Y-65253096D01*
X117854094Y-65172284D01*
X117746345Y-65064534D01*
X117665532Y-65037597D01*
X117611658Y-65037597D01*
X117530845Y-65064534D01*
X117423096Y-65172284D01*
X117396158Y-65253096D01*
X117396158Y-65306971D01*
X117423096Y-65387783D01*
X113178155Y-92253841D02*
X113205093Y-92334653D01*
X113285905Y-92415465D01*
X113393654Y-92469340D01*
X113501404Y-92469340D01*
X113582216Y-92442402D01*
X113716903Y-92361590D01*
X113797715Y-92280778D01*
X113878528Y-92146091D01*
X113905465Y-92065279D01*
X113905465Y-91957529D01*
X113851590Y-91849780D01*
X113797715Y-91795905D01*
X113689966Y-91742030D01*
X113636091Y-91742030D01*
X113447529Y-91930592D01*
X113555279Y-92038341D01*
X113447529Y-91445719D02*
X112881844Y-92011404D01*
X113124280Y-91122470D01*
X112558595Y-91688155D01*
X112854906Y-90853096D02*
X112289221Y-91418781D01*
X112154534Y-91284094D01*
X112100659Y-91176345D01*
X112100659Y-91068595D01*
X112127597Y-90987783D01*
X112208409Y-90853096D01*
X112289221Y-90772284D01*
X112423908Y-90691471D01*
X112504720Y-90664534D01*
X112612470Y-90664534D01*
X112720219Y-90718409D01*
X112854906Y-90853096D01*
X121040592Y-92750277D02*
X121067529Y-92831089D01*
X121148341Y-92911902D01*
X121256091Y-92965776D01*
X121363841Y-92965776D01*
X121444653Y-92938839D01*
X121579340Y-92858027D01*
X121660152Y-92777215D01*
X121740964Y-92642528D01*
X121767902Y-92561715D01*
X121767902Y-92453966D01*
X121714027Y-92346216D01*
X121660152Y-92292341D01*
X121552402Y-92238467D01*
X121498528Y-92238467D01*
X121309966Y-92427028D01*
X121417715Y-92534778D01*
X121309966Y-91942155D02*
X120744280Y-92507841D01*
X120528781Y-92292341D01*
X120501844Y-92211529D01*
X120501844Y-92157654D01*
X120528781Y-92076842D01*
X120609593Y-91996030D01*
X120690406Y-91969093D01*
X120744280Y-91969093D01*
X120825093Y-91996030D01*
X121040592Y-92211529D01*
X120259407Y-91915218D02*
X120205532Y-91915218D01*
X120124720Y-91888280D01*
X119990033Y-91753593D01*
X119963096Y-91672781D01*
X119963096Y-91618906D01*
X119990033Y-91538094D01*
X120043908Y-91484219D01*
X120151658Y-91430345D01*
X120798155Y-91430345D01*
X120447969Y-91080158D01*
X119397410Y-91160971D02*
X119505160Y-91268720D01*
X119585972Y-91295658D01*
X119639847Y-91295658D01*
X119774534Y-91268720D01*
X119909221Y-91187908D01*
X120124720Y-90972409D01*
X120151658Y-90891597D01*
X120151658Y-90837722D01*
X120124720Y-90756910D01*
X120016971Y-90649160D01*
X119936158Y-90622223D01*
X119882284Y-90622223D01*
X119801471Y-90649160D01*
X119666784Y-90783847D01*
X119639847Y-90864659D01*
X119639847Y-90918534D01*
X119666784Y-90999346D01*
X119774534Y-91107096D01*
X119855346Y-91134033D01*
X119909221Y-91134033D01*
X119990033Y-91107096D01*
X110880592Y-66642277D02*
X110907529Y-66723089D01*
X110988341Y-66803902D01*
X111096091Y-66857776D01*
X111203841Y-66857776D01*
X111284653Y-66830839D01*
X111419340Y-66750027D01*
X111500152Y-66669215D01*
X111580964Y-66534528D01*
X111607902Y-66453715D01*
X111607902Y-66345966D01*
X111554027Y-66238216D01*
X111500152Y-66184341D01*
X111392402Y-66130467D01*
X111338528Y-66130467D01*
X111149966Y-66319028D01*
X111257715Y-66426778D01*
X111149966Y-65834155D02*
X110584280Y-66399841D01*
X110368781Y-66184341D01*
X110341844Y-66103529D01*
X110341844Y-66049654D01*
X110368781Y-65968842D01*
X110449593Y-65888030D01*
X110530406Y-65861093D01*
X110584280Y-65861093D01*
X110665093Y-65888030D01*
X110880592Y-66103529D01*
X110287969Y-64972158D02*
X110611218Y-65295407D01*
X110449593Y-65133783D02*
X109883908Y-65699468D01*
X110018595Y-65672531D01*
X110126345Y-65672531D01*
X110207157Y-65699468D01*
X109372097Y-65187658D02*
X109318223Y-65133783D01*
X109291285Y-65052971D01*
X109291285Y-64999096D01*
X109318223Y-64918284D01*
X109399035Y-64783597D01*
X109533722Y-64648910D01*
X109668409Y-64568097D01*
X109749221Y-64541160D01*
X109803096Y-64541160D01*
X109883908Y-64568097D01*
X109937783Y-64621972D01*
X109964720Y-64702784D01*
X109964720Y-64756659D01*
X109937783Y-64837471D01*
X109856971Y-64972158D01*
X109722284Y-65106845D01*
X109587597Y-65187658D01*
X109506784Y-65214595D01*
X109452910Y-65214595D01*
X109372097Y-65187658D01*
X108340592Y-92750277D02*
X108367529Y-92831089D01*
X108448341Y-92911902D01*
X108556091Y-92965776D01*
X108663841Y-92965776D01*
X108744653Y-92938839D01*
X108879340Y-92858027D01*
X108960152Y-92777215D01*
X109040964Y-92642528D01*
X109067902Y-92561715D01*
X109067902Y-92453966D01*
X109014027Y-92346216D01*
X108960152Y-92292341D01*
X108852402Y-92238467D01*
X108798528Y-92238467D01*
X108609966Y-92427028D01*
X108717715Y-92534778D01*
X108609966Y-91942155D02*
X108044280Y-92507841D01*
X107828781Y-92292341D01*
X107801844Y-92211529D01*
X107801844Y-92157654D01*
X107828781Y-92076842D01*
X107909593Y-91996030D01*
X107990406Y-91969093D01*
X108044280Y-91969093D01*
X108125093Y-91996030D01*
X108340592Y-92211529D01*
X107559407Y-91915218D02*
X107505532Y-91915218D01*
X107424720Y-91888280D01*
X107290033Y-91753593D01*
X107263096Y-91672781D01*
X107263096Y-91618906D01*
X107290033Y-91538094D01*
X107343908Y-91484219D01*
X107451658Y-91430345D01*
X108098155Y-91430345D01*
X107747969Y-91080158D01*
X106832097Y-91295658D02*
X106778223Y-91241783D01*
X106751285Y-91160971D01*
X106751285Y-91107096D01*
X106778223Y-91026284D01*
X106859035Y-90891597D01*
X106993722Y-90756910D01*
X107128409Y-90676097D01*
X107209221Y-90649160D01*
X107263096Y-90649160D01*
X107343908Y-90676097D01*
X107397783Y-90729972D01*
X107424720Y-90810784D01*
X107424720Y-90864659D01*
X107397783Y-90945471D01*
X107316971Y-91080158D01*
X107182284Y-91214845D01*
X107047597Y-91295658D01*
X106966784Y-91322595D01*
X106912910Y-91322595D01*
X106832097Y-91295658D01*
X105800592Y-66496277D02*
X105827529Y-66577089D01*
X105908341Y-66657902D01*
X106016091Y-66711776D01*
X106123841Y-66711776D01*
X106204653Y-66684839D01*
X106339340Y-66604027D01*
X106420152Y-66523215D01*
X106500964Y-66388528D01*
X106527902Y-66307715D01*
X106527902Y-66199966D01*
X106474027Y-66092216D01*
X106420152Y-66038341D01*
X106312402Y-65984467D01*
X106258528Y-65984467D01*
X106069966Y-66173028D01*
X106177715Y-66280778D01*
X106069966Y-65688155D02*
X105504280Y-66253841D01*
X105288781Y-66038341D01*
X105261844Y-65957529D01*
X105261844Y-65903654D01*
X105288781Y-65822842D01*
X105369593Y-65742030D01*
X105450406Y-65715093D01*
X105504280Y-65715093D01*
X105585093Y-65742030D01*
X105800592Y-65957529D01*
X105207969Y-64826158D02*
X105531218Y-65149407D01*
X105369593Y-64987783D02*
X104803908Y-65553468D01*
X104938595Y-65526531D01*
X105046345Y-65526531D01*
X105127157Y-65553468D01*
X104480659Y-65122470D02*
X104426784Y-65122470D01*
X104345972Y-65095532D01*
X104211285Y-64960845D01*
X104184348Y-64880033D01*
X104184348Y-64826158D01*
X104211285Y-64745346D01*
X104265160Y-64691471D01*
X104372910Y-64637597D01*
X105019407Y-64637597D01*
X104669221Y-64287410D01*
X125878155Y-66653841D02*
X125905093Y-66734653D01*
X125985905Y-66815465D01*
X126093654Y-66869340D01*
X126201404Y-66869340D01*
X126282216Y-66842402D01*
X126416903Y-66761590D01*
X126497715Y-66680778D01*
X126578528Y-66546091D01*
X126605465Y-66465279D01*
X126605465Y-66357529D01*
X126551590Y-66249780D01*
X126497715Y-66195905D01*
X126389966Y-66142030D01*
X126336091Y-66142030D01*
X126147529Y-66330592D01*
X126255279Y-66438341D01*
X126147529Y-65845719D02*
X125581844Y-66411404D01*
X125824280Y-65522470D01*
X125258595Y-66088155D01*
X125554906Y-65253096D02*
X124989221Y-65818781D01*
X124854534Y-65684094D01*
X124800659Y-65576345D01*
X124800659Y-65468595D01*
X124827597Y-65387783D01*
X124908409Y-65253096D01*
X124989221Y-65172284D01*
X125123908Y-65091471D01*
X125204720Y-65064534D01*
X125312470Y-65064534D01*
X125420219Y-65118409D01*
X125554906Y-65253096D01*
X136011218Y-66526903D02*
X136038155Y-66607715D01*
X136118967Y-66688528D01*
X136226717Y-66742402D01*
X136334467Y-66742402D01*
X136415279Y-66715465D01*
X136549966Y-66634653D01*
X136630778Y-66553841D01*
X136711590Y-66419154D01*
X136738528Y-66338341D01*
X136738528Y-66230592D01*
X136684653Y-66122842D01*
X136630778Y-66068967D01*
X136523028Y-66015093D01*
X136469154Y-66015093D01*
X136280592Y-66203654D01*
X136388341Y-66311404D01*
X136280592Y-65718781D02*
X135714906Y-66284467D01*
X135499407Y-66068967D01*
X135472470Y-65988155D01*
X135472470Y-65934280D01*
X135499407Y-65853468D01*
X135580219Y-65772656D01*
X135661032Y-65745719D01*
X135714906Y-65745719D01*
X135795719Y-65772656D01*
X136011218Y-65988155D01*
X135230033Y-65691844D02*
X135176158Y-65691844D01*
X135095346Y-65664906D01*
X134960659Y-65530219D01*
X134933722Y-65449407D01*
X134933722Y-65395532D01*
X134960659Y-65314720D01*
X135014534Y-65260845D01*
X135122284Y-65206971D01*
X135768781Y-65206971D01*
X135418595Y-64856784D01*
X138578155Y-66653841D02*
X138605093Y-66734653D01*
X138685905Y-66815465D01*
X138793654Y-66869340D01*
X138901404Y-66869340D01*
X138982216Y-66842402D01*
X139116903Y-66761590D01*
X139197715Y-66680778D01*
X139278528Y-66546091D01*
X139305465Y-66465279D01*
X139305465Y-66357529D01*
X139251590Y-66249780D01*
X139197715Y-66195905D01*
X139089966Y-66142030D01*
X139036091Y-66142030D01*
X138847529Y-66330592D01*
X138955279Y-66438341D01*
X138847529Y-65845719D02*
X138281844Y-66411404D01*
X138524280Y-65522470D01*
X137958595Y-66088155D01*
X138254906Y-65253096D02*
X137689221Y-65818781D01*
X137554534Y-65684094D01*
X137500659Y-65576345D01*
X137500659Y-65468595D01*
X137527597Y-65387783D01*
X137608409Y-65253096D01*
X137689221Y-65172284D01*
X137823908Y-65091471D01*
X137904720Y-65064534D01*
X138012470Y-65064534D01*
X138120219Y-65118409D01*
X138254906Y-65253096D01*
X110870592Y-92750277D02*
X110897529Y-92831089D01*
X110978341Y-92911902D01*
X111086091Y-92965776D01*
X111193841Y-92965776D01*
X111274653Y-92938839D01*
X111409340Y-92858027D01*
X111490152Y-92777215D01*
X111570964Y-92642528D01*
X111597902Y-92561715D01*
X111597902Y-92453966D01*
X111544027Y-92346216D01*
X111490152Y-92292341D01*
X111382402Y-92238467D01*
X111328528Y-92238467D01*
X111139966Y-92427028D01*
X111247715Y-92534778D01*
X111139966Y-91942155D02*
X110574280Y-92507841D01*
X110358781Y-92292341D01*
X110331844Y-92211529D01*
X110331844Y-92157654D01*
X110358781Y-92076842D01*
X110439593Y-91996030D01*
X110520406Y-91969093D01*
X110574280Y-91969093D01*
X110655093Y-91996030D01*
X110870592Y-92211529D01*
X110089407Y-91915218D02*
X110035532Y-91915218D01*
X109954720Y-91888280D01*
X109820033Y-91753593D01*
X109793096Y-91672781D01*
X109793096Y-91618906D01*
X109820033Y-91538094D01*
X109873908Y-91484219D01*
X109981658Y-91430345D01*
X110628155Y-91430345D01*
X110277969Y-91080158D01*
X109739221Y-90541410D02*
X110062470Y-90864659D01*
X109900845Y-90703035D02*
X109335160Y-91268720D01*
X109469847Y-91241783D01*
X109577597Y-91241783D01*
X109658409Y-91268720D01*
X141629966Y-93219526D02*
X142007089Y-92465279D01*
X141252842Y-92842402D01*
X141629966Y-92142030D02*
X141576091Y-92034280D01*
X141441404Y-91899593D01*
X141360592Y-91872656D01*
X141306717Y-91872656D01*
X141225905Y-91899593D01*
X141172030Y-91953468D01*
X141145093Y-92034280D01*
X141145093Y-92088155D01*
X141172030Y-92168967D01*
X141252842Y-92303654D01*
X141279780Y-92384467D01*
X141279780Y-92438341D01*
X141252842Y-92519154D01*
X141198967Y-92573028D01*
X141118155Y-92599966D01*
X141064280Y-92599966D01*
X140983468Y-92573028D01*
X140848781Y-92438341D01*
X140794906Y-92330592D01*
X140714094Y-91711032D02*
X140983468Y-91441658D01*
X140606345Y-92195905D02*
X140714094Y-91711032D01*
X140229221Y-91818781D01*
X140606345Y-91118409D02*
X140552470Y-91010659D01*
X140417783Y-90875972D01*
X140336971Y-90849035D01*
X140283096Y-90849035D01*
X140202284Y-90875972D01*
X140148409Y-90929847D01*
X140121471Y-91010659D01*
X140121471Y-91064534D01*
X140148409Y-91145346D01*
X140229221Y-91280033D01*
X140256158Y-91360845D01*
X140256158Y-91414720D01*
X140229221Y-91495532D01*
X140175346Y-91549407D01*
X140094534Y-91576345D01*
X140040659Y-91576345D01*
X139959847Y-91549407D01*
X139825160Y-91414720D01*
X139771285Y-91306971D01*
X103260592Y-66642277D02*
X103287529Y-66723089D01*
X103368341Y-66803902D01*
X103476091Y-66857776D01*
X103583841Y-66857776D01*
X103664653Y-66830839D01*
X103799340Y-66750027D01*
X103880152Y-66669215D01*
X103960964Y-66534528D01*
X103987902Y-66453715D01*
X103987902Y-66345966D01*
X103934027Y-66238216D01*
X103880152Y-66184341D01*
X103772402Y-66130467D01*
X103718528Y-66130467D01*
X103529966Y-66319028D01*
X103637715Y-66426778D01*
X103529966Y-65834155D02*
X102964280Y-66399841D01*
X102748781Y-66184341D01*
X102721844Y-66103529D01*
X102721844Y-66049654D01*
X102748781Y-65968842D01*
X102829593Y-65888030D01*
X102910406Y-65861093D01*
X102964280Y-65861093D01*
X103045093Y-65888030D01*
X103260592Y-66103529D01*
X102667969Y-64972158D02*
X102991218Y-65295407D01*
X102829593Y-65133783D02*
X102263908Y-65699468D01*
X102398595Y-65672531D01*
X102506345Y-65672531D01*
X102587157Y-65699468D01*
X101913722Y-65349282D02*
X101563536Y-64999096D01*
X101967597Y-64972158D01*
X101886784Y-64891346D01*
X101859847Y-64810534D01*
X101859847Y-64756659D01*
X101886784Y-64675847D01*
X102021471Y-64541160D01*
X102102284Y-64514223D01*
X102156158Y-64514223D01*
X102236971Y-64541160D01*
X102398595Y-64702784D01*
X102425532Y-64783597D01*
X102425532Y-64837471D01*
X133913773Y-94585211D02*
X133644399Y-94315837D01*
X134129272Y-94477462D02*
X133375025Y-94854585D01*
X133752149Y-94100338D01*
X133563587Y-93911776D02*
X132997902Y-94477462D01*
X132863215Y-94342775D01*
X132809340Y-94235025D01*
X132809340Y-94127276D01*
X132836277Y-94046463D01*
X132917089Y-93911776D01*
X132997902Y-93830964D01*
X133132589Y-93750152D01*
X133213401Y-93723215D01*
X133321150Y-93723215D01*
X133428900Y-93777089D01*
X133563587Y-93911776D01*
X132620778Y-93076717D02*
X132674653Y-93076717D01*
X132782402Y-93130592D01*
X132836277Y-93184467D01*
X132890152Y-93292216D01*
X132890152Y-93399966D01*
X132863215Y-93480778D01*
X132782402Y-93615465D01*
X132701590Y-93696277D01*
X132566903Y-93777089D01*
X132486091Y-93804027D01*
X132378341Y-93804027D01*
X132270592Y-93750152D01*
X132216717Y-93696277D01*
X132162842Y-93588528D01*
X132162842Y-93534653D01*
X132620778Y-92861218D02*
X132189780Y-92430219D01*
X131516345Y-92995905D02*
X131893468Y-92241658D01*
X131139221Y-92618781D01*
X131193096Y-91541285D02*
X131112284Y-91999221D01*
X131516345Y-91864534D02*
X130950659Y-92430219D01*
X130735160Y-92214720D01*
X130708223Y-92133908D01*
X130708223Y-92080033D01*
X130735160Y-91999221D01*
X130815972Y-91918409D01*
X130896784Y-91891471D01*
X130950659Y-91891471D01*
X131031471Y-91918409D01*
X131246971Y-92133908D01*
X130654348Y-91595160D02*
X130465786Y-91406598D01*
X130681285Y-91029475D02*
X130950659Y-91298849D01*
X130384974Y-91864534D01*
X130115600Y-91595160D01*
X129953975Y-90894788D02*
X130142537Y-91083349D01*
X130438849Y-90787038D02*
X129873163Y-91352723D01*
X129603789Y-91083349D01*
X115960592Y-92750277D02*
X115987529Y-92831089D01*
X116068341Y-92911902D01*
X116176091Y-92965776D01*
X116283841Y-92965776D01*
X116364653Y-92938839D01*
X116499340Y-92858027D01*
X116580152Y-92777215D01*
X116660964Y-92642528D01*
X116687902Y-92561715D01*
X116687902Y-92453966D01*
X116634027Y-92346216D01*
X116580152Y-92292341D01*
X116472402Y-92238467D01*
X116418528Y-92238467D01*
X116229966Y-92427028D01*
X116337715Y-92534778D01*
X116229966Y-91942155D02*
X115664280Y-92507841D01*
X115448781Y-92292341D01*
X115421844Y-92211529D01*
X115421844Y-92157654D01*
X115448781Y-92076842D01*
X115529593Y-91996030D01*
X115610406Y-91969093D01*
X115664280Y-91969093D01*
X115745093Y-91996030D01*
X115960592Y-92211529D01*
X115179407Y-91915218D02*
X115125532Y-91915218D01*
X115044720Y-91888280D01*
X114910033Y-91753593D01*
X114883096Y-91672781D01*
X114883096Y-91618906D01*
X114910033Y-91538094D01*
X114963908Y-91484219D01*
X115071658Y-91430345D01*
X115718155Y-91430345D01*
X115367969Y-91080158D01*
X114640659Y-91376470D02*
X114586784Y-91376470D01*
X114505972Y-91349532D01*
X114371285Y-91214845D01*
X114344348Y-91134033D01*
X114344348Y-91080158D01*
X114371285Y-90999346D01*
X114425160Y-90945471D01*
X114532910Y-90891597D01*
X115179407Y-90891597D01*
X114829221Y-90541410D01*
X123311218Y-66626903D02*
X123338155Y-66707715D01*
X123418967Y-66788528D01*
X123526717Y-66842402D01*
X123634467Y-66842402D01*
X123715279Y-66815465D01*
X123849966Y-66734653D01*
X123930778Y-66653841D01*
X124011590Y-66519154D01*
X124038528Y-66438341D01*
X124038528Y-66330592D01*
X123984653Y-66222842D01*
X123930778Y-66168967D01*
X123823028Y-66115093D01*
X123769154Y-66115093D01*
X123580592Y-66303654D01*
X123688341Y-66411404D01*
X123580592Y-65818781D02*
X123014906Y-66384467D01*
X122799407Y-66168967D01*
X122772470Y-66088155D01*
X122772470Y-66034280D01*
X122799407Y-65953468D01*
X122880219Y-65872656D01*
X122961032Y-65845719D01*
X123014906Y-65845719D01*
X123095719Y-65872656D01*
X123311218Y-66088155D01*
X122206784Y-65576345D02*
X122314534Y-65684094D01*
X122395346Y-65711032D01*
X122449221Y-65711032D01*
X122583908Y-65684094D01*
X122718595Y-65603282D01*
X122934094Y-65387783D01*
X122961032Y-65306971D01*
X122961032Y-65253096D01*
X122934094Y-65172284D01*
X122826345Y-65064534D01*
X122745532Y-65037597D01*
X122691658Y-65037597D01*
X122610845Y-65064534D01*
X122476158Y-65199221D01*
X122449221Y-65280033D01*
X122449221Y-65333908D01*
X122476158Y-65414720D01*
X122583908Y-65522470D01*
X122664720Y-65549407D01*
X122718595Y-65549407D01*
X122799407Y-65522470D01*
X133670592Y-92650152D02*
X133320406Y-92299966D01*
X133724467Y-92273028D01*
X133643654Y-92192216D01*
X133616717Y-92111404D01*
X133616717Y-92057529D01*
X133643654Y-91976717D01*
X133778341Y-91842030D01*
X133859154Y-91815093D01*
X133913028Y-91815093D01*
X133993841Y-91842030D01*
X134155465Y-92003654D01*
X134182402Y-92084467D01*
X134182402Y-92138341D01*
X133158781Y-92138341D02*
X133535905Y-91384094D01*
X132781658Y-91761218D01*
X132646971Y-91626531D02*
X132296784Y-91276345D01*
X132700845Y-91249407D01*
X132620033Y-91168595D01*
X132593096Y-91087783D01*
X132593096Y-91033908D01*
X132620033Y-90953096D01*
X132754720Y-90818409D01*
X132835532Y-90791471D01*
X132889407Y-90791471D01*
X132970219Y-90818409D01*
X133131844Y-90980033D01*
X133158781Y-91060845D01*
X133158781Y-91114720D01*
X137738308Y-94217868D02*
X137388122Y-93867682D01*
X137792183Y-93840744D01*
X137711370Y-93759932D01*
X137684433Y-93679120D01*
X137684433Y-93625245D01*
X137711370Y-93544433D01*
X137846057Y-93409746D01*
X137926870Y-93382809D01*
X137980744Y-93382809D01*
X138061557Y-93409746D01*
X138223181Y-93571370D01*
X138250118Y-93652183D01*
X138250118Y-93706057D01*
X137226497Y-93706057D02*
X137603621Y-92951810D01*
X136849374Y-93328934D01*
X136714687Y-93194247D02*
X136364500Y-92844061D01*
X136768561Y-92817123D01*
X136687749Y-92736311D01*
X136660812Y-92655499D01*
X136660812Y-92601624D01*
X136687749Y-92520812D01*
X136822436Y-92386125D01*
X136903248Y-92359187D01*
X136957123Y-92359187D01*
X137037935Y-92386125D01*
X137199560Y-92547749D01*
X137226497Y-92628561D01*
X137226497Y-92682436D01*
X136876311Y-92116751D02*
X136445312Y-91685752D01*
X135960439Y-91901251D02*
X135771877Y-91712690D01*
X135987377Y-91335566D02*
X136256751Y-91604940D01*
X135691065Y-92170625D01*
X135421691Y-91901251D01*
X135744940Y-91093129D02*
X135179255Y-91658815D01*
X135421691Y-90769881D01*
X134856006Y-91335566D01*
X103260592Y-92750277D02*
X103287529Y-92831089D01*
X103368341Y-92911902D01*
X103476091Y-92965776D01*
X103583841Y-92965776D01*
X103664653Y-92938839D01*
X103799340Y-92858027D01*
X103880152Y-92777215D01*
X103960964Y-92642528D01*
X103987902Y-92561715D01*
X103987902Y-92453966D01*
X103934027Y-92346216D01*
X103880152Y-92292341D01*
X103772402Y-92238467D01*
X103718528Y-92238467D01*
X103529966Y-92427028D01*
X103637715Y-92534778D01*
X103529966Y-91942155D02*
X102964280Y-92507841D01*
X102748781Y-92292341D01*
X102721844Y-92211529D01*
X102721844Y-92157654D01*
X102748781Y-92076842D01*
X102829593Y-91996030D01*
X102910406Y-91969093D01*
X102964280Y-91969093D01*
X103045093Y-91996030D01*
X103260592Y-92211529D01*
X102667969Y-91080158D02*
X102991218Y-91403407D01*
X102829593Y-91241783D02*
X102263908Y-91807468D01*
X102398595Y-91780531D01*
X102506345Y-91780531D01*
X102587157Y-91807468D01*
X102021471Y-91080158D02*
X102048409Y-91160971D01*
X102048409Y-91214845D01*
X102021471Y-91295658D01*
X101994534Y-91322595D01*
X101913722Y-91349532D01*
X101859847Y-91349532D01*
X101779035Y-91322595D01*
X101671285Y-91214845D01*
X101644348Y-91134033D01*
X101644348Y-91080158D01*
X101671285Y-90999346D01*
X101698223Y-90972409D01*
X101779035Y-90945471D01*
X101832910Y-90945471D01*
X101913722Y-90972409D01*
X102021471Y-91080158D01*
X102102284Y-91107096D01*
X102156158Y-91107096D01*
X102236971Y-91080158D01*
X102344720Y-90972409D01*
X102371658Y-90891597D01*
X102371658Y-90837722D01*
X102344720Y-90756910D01*
X102236971Y-90649160D01*
X102156158Y-90622223D01*
X102102284Y-90622223D01*
X102021471Y-90649160D01*
X101913722Y-90756910D01*
X101886784Y-90837722D01*
X101886784Y-90891597D01*
X101913722Y-90972409D01*
X98180592Y-66596277D02*
X98207529Y-66677089D01*
X98288341Y-66757902D01*
X98396091Y-66811776D01*
X98503841Y-66811776D01*
X98584653Y-66784839D01*
X98719340Y-66704027D01*
X98800152Y-66623215D01*
X98880964Y-66488528D01*
X98907902Y-66407715D01*
X98907902Y-66299966D01*
X98854027Y-66192216D01*
X98800152Y-66138341D01*
X98692402Y-66084467D01*
X98638528Y-66084467D01*
X98449966Y-66273028D01*
X98557715Y-66380778D01*
X98449966Y-65788155D02*
X97884280Y-66353841D01*
X97668781Y-66138341D01*
X97641844Y-66057529D01*
X97641844Y-66003654D01*
X97668781Y-65922842D01*
X97749593Y-65842030D01*
X97830406Y-65815093D01*
X97884280Y-65815093D01*
X97965093Y-65842030D01*
X98180592Y-66057529D01*
X97587969Y-64926158D02*
X97911218Y-65249407D01*
X97749593Y-65087783D02*
X97183908Y-65653468D01*
X97318595Y-65626531D01*
X97426345Y-65626531D01*
X97507157Y-65653468D01*
X96725972Y-64818409D02*
X97103096Y-64441285D01*
X96645160Y-65168595D02*
X97183908Y-64899221D01*
X96833722Y-64549035D01*
X100478155Y-92253841D02*
X100505093Y-92334653D01*
X100585905Y-92415465D01*
X100693654Y-92469340D01*
X100801404Y-92469340D01*
X100882216Y-92442402D01*
X101016903Y-92361590D01*
X101097715Y-92280778D01*
X101178528Y-92146091D01*
X101205465Y-92065279D01*
X101205465Y-91957529D01*
X101151590Y-91849780D01*
X101097715Y-91795905D01*
X100989966Y-91742030D01*
X100936091Y-91742030D01*
X100747529Y-91930592D01*
X100855279Y-92038341D01*
X100747529Y-91445719D02*
X100181844Y-92011404D01*
X100424280Y-91122470D01*
X99858595Y-91688155D01*
X100154906Y-90853096D02*
X99589221Y-91418781D01*
X99454534Y-91284094D01*
X99400659Y-91176345D01*
X99400659Y-91068595D01*
X99427597Y-90987783D01*
X99508409Y-90853096D01*
X99589221Y-90772284D01*
X99723908Y-90691471D01*
X99804720Y-90664534D01*
X99912470Y-90664534D01*
X100020219Y-90718409D01*
X100154906Y-90853096D01*
X126820964Y-92696402D02*
X126551590Y-92427028D01*
X127036463Y-92588653D02*
X126282216Y-92965776D01*
X126659340Y-92211529D01*
X125635719Y-92265404D02*
X125662656Y-92346216D01*
X125743468Y-92427028D01*
X125851218Y-92480903D01*
X125958967Y-92480903D01*
X126039780Y-92453966D01*
X126174467Y-92373154D01*
X126255279Y-92292341D01*
X126336091Y-92157654D01*
X126363028Y-92076842D01*
X126363028Y-91969093D01*
X126309154Y-91861343D01*
X126255279Y-91807468D01*
X126147529Y-91753593D01*
X126093654Y-91753593D01*
X125905093Y-91942155D01*
X126012842Y-92049905D01*
X125905093Y-91457282D02*
X125339407Y-92022967D01*
X125581844Y-91134033D01*
X125016158Y-91699719D01*
X125312470Y-90864659D02*
X124746784Y-91430345D01*
X124612097Y-91295658D01*
X124558223Y-91187908D01*
X124558223Y-91080158D01*
X124585160Y-90999346D01*
X124665972Y-90864659D01*
X124746784Y-90783847D01*
X124881471Y-90703035D01*
X124962284Y-90676097D01*
X125070033Y-90676097D01*
X125177783Y-90729972D01*
X125312470Y-90864659D01*
X143631218Y-66626903D02*
X143658155Y-66707715D01*
X143738967Y-66788528D01*
X143846717Y-66842402D01*
X143954467Y-66842402D01*
X144035279Y-66815465D01*
X144169966Y-66734653D01*
X144250778Y-66653841D01*
X144331590Y-66519154D01*
X144358528Y-66438341D01*
X144358528Y-66330592D01*
X144304653Y-66222842D01*
X144250778Y-66168967D01*
X144143028Y-66115093D01*
X144089154Y-66115093D01*
X143900592Y-66303654D01*
X144008341Y-66411404D01*
X143900592Y-65818781D02*
X143334906Y-66384467D01*
X143119407Y-66168967D01*
X143092470Y-66088155D01*
X143092470Y-66034280D01*
X143119407Y-65953468D01*
X143200219Y-65872656D01*
X143281032Y-65845719D01*
X143334906Y-65845719D01*
X143415719Y-65872656D01*
X143631218Y-66088155D01*
X142661471Y-65711032D02*
X142607597Y-65657157D01*
X142580659Y-65576345D01*
X142580659Y-65522470D01*
X142607597Y-65441658D01*
X142688409Y-65306971D01*
X142823096Y-65172284D01*
X142957783Y-65091471D01*
X143038595Y-65064534D01*
X143092470Y-65064534D01*
X143173282Y-65091471D01*
X143227157Y-65145346D01*
X143254094Y-65226158D01*
X143254094Y-65280033D01*
X143227157Y-65360845D01*
X143146345Y-65495532D01*
X143011658Y-65630219D01*
X142876971Y-65711032D01*
X142796158Y-65737969D01*
X142742284Y-65737969D01*
X142661471Y-65711032D01*
X100478155Y-66653841D02*
X100505093Y-66734653D01*
X100585905Y-66815465D01*
X100693654Y-66869340D01*
X100801404Y-66869340D01*
X100882216Y-66842402D01*
X101016903Y-66761590D01*
X101097715Y-66680778D01*
X101178528Y-66546091D01*
X101205465Y-66465279D01*
X101205465Y-66357529D01*
X101151590Y-66249780D01*
X101097715Y-66195905D01*
X100989966Y-66142030D01*
X100936091Y-66142030D01*
X100747529Y-66330592D01*
X100855279Y-66438341D01*
X100747529Y-65845719D02*
X100181844Y-66411404D01*
X100424280Y-65522470D01*
X99858595Y-66088155D01*
X100154906Y-65253096D02*
X99589221Y-65818781D01*
X99454534Y-65684094D01*
X99400659Y-65576345D01*
X99400659Y-65468595D01*
X99427597Y-65387783D01*
X99508409Y-65253096D01*
X99589221Y-65172284D01*
X99723908Y-65091471D01*
X99804720Y-65064534D01*
X99912470Y-65064534D01*
X100020219Y-65118409D01*
X100154906Y-65253096D01*
X141101218Y-66526903D02*
X141128155Y-66607715D01*
X141208967Y-66688528D01*
X141316717Y-66742402D01*
X141424467Y-66742402D01*
X141505279Y-66715465D01*
X141639966Y-66634653D01*
X141720778Y-66553841D01*
X141801590Y-66419154D01*
X141828528Y-66338341D01*
X141828528Y-66230592D01*
X141774653Y-66122842D01*
X141720778Y-66068967D01*
X141613028Y-66015093D01*
X141559154Y-66015093D01*
X141370592Y-66203654D01*
X141478341Y-66311404D01*
X141370592Y-65718781D02*
X140804906Y-66284467D01*
X140589407Y-66068967D01*
X140562470Y-65988155D01*
X140562470Y-65934280D01*
X140589407Y-65853468D01*
X140670219Y-65772656D01*
X140751032Y-65745719D01*
X140804906Y-65745719D01*
X140885719Y-65772656D01*
X141101218Y-65988155D01*
X140508595Y-64856784D02*
X140831844Y-65180033D01*
X140670219Y-65018409D02*
X140104534Y-65584094D01*
X140239221Y-65557157D01*
X140346971Y-65557157D01*
X140427783Y-65584094D01*
X128391218Y-66626903D02*
X128418155Y-66707715D01*
X128498967Y-66788528D01*
X128606717Y-66842402D01*
X128714467Y-66842402D01*
X128795279Y-66815465D01*
X128929966Y-66734653D01*
X129010778Y-66653841D01*
X129091590Y-66519154D01*
X129118528Y-66438341D01*
X129118528Y-66330592D01*
X129064653Y-66222842D01*
X129010778Y-66168967D01*
X128903028Y-66115093D01*
X128849154Y-66115093D01*
X128660592Y-66303654D01*
X128768341Y-66411404D01*
X128660592Y-65818781D02*
X128094906Y-66384467D01*
X127879407Y-66168967D01*
X127852470Y-66088155D01*
X127852470Y-66034280D01*
X127879407Y-65953468D01*
X127960219Y-65872656D01*
X128041032Y-65845719D01*
X128094906Y-65845719D01*
X128175719Y-65872656D01*
X128391218Y-66088155D01*
X127259847Y-65549407D02*
X127529221Y-65818781D01*
X127825532Y-65576345D01*
X127771658Y-65576345D01*
X127690845Y-65549407D01*
X127556158Y-65414720D01*
X127529221Y-65333908D01*
X127529221Y-65280033D01*
X127556158Y-65199221D01*
X127690845Y-65064534D01*
X127771658Y-65037597D01*
X127825532Y-65037597D01*
X127906345Y-65064534D01*
X128041032Y-65199221D01*
X128067969Y-65280033D01*
X128067969Y-65333908D01*
X128914592Y-92750277D02*
X128941529Y-92831089D01*
X129022341Y-92911902D01*
X129130091Y-92965776D01*
X129237841Y-92965776D01*
X129318653Y-92938839D01*
X129453340Y-92858027D01*
X129534152Y-92777215D01*
X129614964Y-92642528D01*
X129641902Y-92561715D01*
X129641902Y-92453966D01*
X129588027Y-92346216D01*
X129534152Y-92292341D01*
X129426402Y-92238467D01*
X129372528Y-92238467D01*
X129183966Y-92427028D01*
X129291715Y-92534778D01*
X129183966Y-91942155D02*
X128618280Y-92507841D01*
X128402781Y-92292341D01*
X128375844Y-92211529D01*
X128375844Y-92157654D01*
X128402781Y-92076842D01*
X128483593Y-91996030D01*
X128564406Y-91969093D01*
X128618280Y-91969093D01*
X128699093Y-91996030D01*
X128914592Y-92211529D01*
X128133407Y-91915218D02*
X128079532Y-91915218D01*
X127998720Y-91888280D01*
X127864033Y-91753593D01*
X127837096Y-91672781D01*
X127837096Y-91618906D01*
X127864033Y-91538094D01*
X127917908Y-91484219D01*
X128025658Y-91430345D01*
X128672155Y-91430345D01*
X128321969Y-91080158D01*
X127675471Y-91080158D02*
X127702409Y-91160971D01*
X127702409Y-91214845D01*
X127675471Y-91295658D01*
X127648534Y-91322595D01*
X127567722Y-91349532D01*
X127513847Y-91349532D01*
X127433035Y-91322595D01*
X127325285Y-91214845D01*
X127298348Y-91134033D01*
X127298348Y-91080158D01*
X127325285Y-90999346D01*
X127352223Y-90972409D01*
X127433035Y-90945471D01*
X127486910Y-90945471D01*
X127567722Y-90972409D01*
X127675471Y-91080158D01*
X127756284Y-91107096D01*
X127810158Y-91107096D01*
X127890971Y-91080158D01*
X127998720Y-90972409D01*
X128025658Y-90891597D01*
X128025658Y-90837722D01*
X127998720Y-90756910D01*
X127890971Y-90649160D01*
X127810158Y-90622223D01*
X127756284Y-90622223D01*
X127675471Y-90649160D01*
X127567722Y-90756910D01*
X127540784Y-90837722D01*
X127540784Y-90891597D01*
X127567722Y-90972409D01*
X133471218Y-66626903D02*
X133498155Y-66707715D01*
X133578967Y-66788528D01*
X133686717Y-66842402D01*
X133794467Y-66842402D01*
X133875279Y-66815465D01*
X134009966Y-66734653D01*
X134090778Y-66653841D01*
X134171590Y-66519154D01*
X134198528Y-66438341D01*
X134198528Y-66330592D01*
X134144653Y-66222842D01*
X134090778Y-66168967D01*
X133983028Y-66115093D01*
X133929154Y-66115093D01*
X133740592Y-66303654D01*
X133848341Y-66411404D01*
X133740592Y-65818781D02*
X133174906Y-66384467D01*
X132959407Y-66168967D01*
X132932470Y-66088155D01*
X132932470Y-66034280D01*
X132959407Y-65953468D01*
X133040219Y-65872656D01*
X133121032Y-65845719D01*
X133174906Y-65845719D01*
X133255719Y-65872656D01*
X133471218Y-66088155D01*
X132663096Y-65872656D02*
X132312910Y-65522470D01*
X132716971Y-65495532D01*
X132636158Y-65414720D01*
X132609221Y-65333908D01*
X132609221Y-65280033D01*
X132636158Y-65199221D01*
X132770845Y-65064534D01*
X132851658Y-65037597D01*
X132905532Y-65037597D01*
X132986345Y-65064534D01*
X133147969Y-65226158D01*
X133174906Y-65306971D01*
X133174906Y-65360845D01*
X130931218Y-66626903D02*
X130958155Y-66707715D01*
X131038967Y-66788528D01*
X131146717Y-66842402D01*
X131254467Y-66842402D01*
X131335279Y-66815465D01*
X131469966Y-66734653D01*
X131550778Y-66653841D01*
X131631590Y-66519154D01*
X131658528Y-66438341D01*
X131658528Y-66330592D01*
X131604653Y-66222842D01*
X131550778Y-66168967D01*
X131443028Y-66115093D01*
X131389154Y-66115093D01*
X131200592Y-66303654D01*
X131308341Y-66411404D01*
X131200592Y-65818781D02*
X130634906Y-66384467D01*
X130419407Y-66168967D01*
X130392470Y-66088155D01*
X130392470Y-66034280D01*
X130419407Y-65953468D01*
X130500219Y-65872656D01*
X130581032Y-65845719D01*
X130634906Y-65845719D01*
X130715719Y-65872656D01*
X130931218Y-66088155D01*
X130015346Y-65387783D02*
X130392470Y-65010659D01*
X129934534Y-65737969D02*
X130473282Y-65468595D01*
X130123096Y-65118409D01*
X138578155Y-92253841D02*
X138605093Y-92334653D01*
X138685905Y-92415465D01*
X138793654Y-92469340D01*
X138901404Y-92469340D01*
X138982216Y-92442402D01*
X139116903Y-92361590D01*
X139197715Y-92280778D01*
X139278528Y-92146091D01*
X139305465Y-92065279D01*
X139305465Y-91957529D01*
X139251590Y-91849780D01*
X139197715Y-91795905D01*
X139089966Y-91742030D01*
X139036091Y-91742030D01*
X138847529Y-91930592D01*
X138955279Y-92038341D01*
X138847529Y-91445719D02*
X138281844Y-92011404D01*
X138524280Y-91122470D01*
X137958595Y-91688155D01*
X138254906Y-90853096D02*
X137689221Y-91418781D01*
X137554534Y-91284094D01*
X137500659Y-91176345D01*
X137500659Y-91068595D01*
X137527597Y-90987783D01*
X137608409Y-90853096D01*
X137689221Y-90772284D01*
X137823908Y-90691471D01*
X137904720Y-90664534D01*
X138012470Y-90664534D01*
X138120219Y-90718409D01*
X138254906Y-90853096D01*
X105800592Y-92750277D02*
X105827529Y-92831089D01*
X105908341Y-92911902D01*
X106016091Y-92965776D01*
X106123841Y-92965776D01*
X106204653Y-92938839D01*
X106339340Y-92858027D01*
X106420152Y-92777215D01*
X106500964Y-92642528D01*
X106527902Y-92561715D01*
X106527902Y-92453966D01*
X106474027Y-92346216D01*
X106420152Y-92292341D01*
X106312402Y-92238467D01*
X106258528Y-92238467D01*
X106069966Y-92427028D01*
X106177715Y-92534778D01*
X106069966Y-91942155D02*
X105504280Y-92507841D01*
X105288781Y-92292341D01*
X105261844Y-92211529D01*
X105261844Y-92157654D01*
X105288781Y-92076842D01*
X105369593Y-91996030D01*
X105450406Y-91969093D01*
X105504280Y-91969093D01*
X105585093Y-91996030D01*
X105800592Y-92211529D01*
X105207969Y-91080158D02*
X105531218Y-91403407D01*
X105369593Y-91241783D02*
X104803908Y-91807468D01*
X104938595Y-91780531D01*
X105046345Y-91780531D01*
X105127157Y-91807468D01*
X104938595Y-90810784D02*
X104830845Y-90703035D01*
X104750033Y-90676097D01*
X104696158Y-90676097D01*
X104561471Y-90703035D01*
X104426784Y-90783847D01*
X104211285Y-90999346D01*
X104184348Y-91080158D01*
X104184348Y-91134033D01*
X104211285Y-91214845D01*
X104319035Y-91322595D01*
X104399847Y-91349532D01*
X104453722Y-91349532D01*
X104534534Y-91322595D01*
X104669221Y-91187908D01*
X104696158Y-91107096D01*
X104696158Y-91053221D01*
X104669221Y-90972409D01*
X104561471Y-90864659D01*
X104480659Y-90837722D01*
X104426784Y-90837722D01*
X104345972Y-90864659D01*
X113178155Y-66653841D02*
X113205093Y-66734653D01*
X113285905Y-66815465D01*
X113393654Y-66869340D01*
X113501404Y-66869340D01*
X113582216Y-66842402D01*
X113716903Y-66761590D01*
X113797715Y-66680778D01*
X113878528Y-66546091D01*
X113905465Y-66465279D01*
X113905465Y-66357529D01*
X113851590Y-66249780D01*
X113797715Y-66195905D01*
X113689966Y-66142030D01*
X113636091Y-66142030D01*
X113447529Y-66330592D01*
X113555279Y-66438341D01*
X113447529Y-65845719D02*
X112881844Y-66411404D01*
X113124280Y-65522470D01*
X112558595Y-66088155D01*
X112854906Y-65253096D02*
X112289221Y-65818781D01*
X112154534Y-65684094D01*
X112100659Y-65576345D01*
X112100659Y-65468595D01*
X112127597Y-65387783D01*
X112208409Y-65253096D01*
X112289221Y-65172284D01*
X112423908Y-65091471D01*
X112504720Y-65064534D01*
X112612470Y-65064534D01*
X112720219Y-65118409D01*
X112854906Y-65253096D01*
X115691218Y-66626903D02*
X115718155Y-66707715D01*
X115798967Y-66788528D01*
X115906717Y-66842402D01*
X116014467Y-66842402D01*
X116095279Y-66815465D01*
X116229966Y-66734653D01*
X116310778Y-66653841D01*
X116391590Y-66519154D01*
X116418528Y-66438341D01*
X116418528Y-66330592D01*
X116364653Y-66222842D01*
X116310778Y-66168967D01*
X116203028Y-66115093D01*
X116149154Y-66115093D01*
X115960592Y-66303654D01*
X116068341Y-66411404D01*
X115960592Y-65818781D02*
X115394906Y-66384467D01*
X115179407Y-66168967D01*
X115152470Y-66088155D01*
X115152470Y-66034280D01*
X115179407Y-65953468D01*
X115260219Y-65872656D01*
X115341032Y-65845719D01*
X115394906Y-65845719D01*
X115475719Y-65872656D01*
X115691218Y-66088155D01*
X115367969Y-65226158D02*
X115260219Y-65118409D01*
X115179407Y-65091471D01*
X115125532Y-65091471D01*
X114990845Y-65118409D01*
X114856158Y-65199221D01*
X114640659Y-65414720D01*
X114613722Y-65495532D01*
X114613722Y-65549407D01*
X114640659Y-65630219D01*
X114748409Y-65737969D01*
X114829221Y-65764906D01*
X114883096Y-65764906D01*
X114963908Y-65737969D01*
X115098595Y-65603282D01*
X115125532Y-65522470D01*
X115125532Y-65468595D01*
X115098595Y-65387783D01*
X114990845Y-65280033D01*
X114910033Y-65253096D01*
X114856158Y-65253096D01*
X114775346Y-65280033D01*
X95640592Y-92750277D02*
X95667529Y-92831089D01*
X95748341Y-92911902D01*
X95856091Y-92965776D01*
X95963841Y-92965776D01*
X96044653Y-92938839D01*
X96179340Y-92858027D01*
X96260152Y-92777215D01*
X96340964Y-92642528D01*
X96367902Y-92561715D01*
X96367902Y-92453966D01*
X96314027Y-92346216D01*
X96260152Y-92292341D01*
X96152402Y-92238467D01*
X96098528Y-92238467D01*
X95909966Y-92427028D01*
X96017715Y-92534778D01*
X95909966Y-91942155D02*
X95344280Y-92507841D01*
X95128781Y-92292341D01*
X95101844Y-92211529D01*
X95101844Y-92157654D01*
X95128781Y-92076842D01*
X95209593Y-91996030D01*
X95290406Y-91969093D01*
X95344280Y-91969093D01*
X95425093Y-91996030D01*
X95640592Y-92211529D01*
X95047969Y-91080158D02*
X95371218Y-91403407D01*
X95209593Y-91241783D02*
X94643908Y-91807468D01*
X94778595Y-91780531D01*
X94886345Y-91780531D01*
X94967157Y-91807468D01*
X93997410Y-91160971D02*
X94105160Y-91268720D01*
X94185972Y-91295658D01*
X94239847Y-91295658D01*
X94374534Y-91268720D01*
X94509221Y-91187908D01*
X94724720Y-90972409D01*
X94751658Y-90891597D01*
X94751658Y-90837722D01*
X94724720Y-90756910D01*
X94616971Y-90649160D01*
X94536158Y-90622223D01*
X94482284Y-90622223D01*
X94401471Y-90649160D01*
X94266784Y-90783847D01*
X94239847Y-90864659D01*
X94239847Y-90918534D01*
X94266784Y-90999346D01*
X94374534Y-91107096D01*
X94455346Y-91134033D01*
X94509221Y-91134033D01*
X94590033Y-91107096D01*
X120801218Y-66726903D02*
X120828155Y-66807715D01*
X120908967Y-66888528D01*
X121016717Y-66942402D01*
X121124467Y-66942402D01*
X121205279Y-66915465D01*
X121339966Y-66834653D01*
X121420778Y-66753841D01*
X121501590Y-66619154D01*
X121528528Y-66538341D01*
X121528528Y-66430592D01*
X121474653Y-66322842D01*
X121420778Y-66268967D01*
X121313028Y-66215093D01*
X121259154Y-66215093D01*
X121070592Y-66403654D01*
X121178341Y-66511404D01*
X121070592Y-65918781D02*
X120504906Y-66484467D01*
X120289407Y-66268967D01*
X120262470Y-66188155D01*
X120262470Y-66134280D01*
X120289407Y-66053468D01*
X120370219Y-65972656D01*
X120451032Y-65945719D01*
X120504906Y-65945719D01*
X120585719Y-65972656D01*
X120801218Y-66188155D01*
X119993096Y-65972656D02*
X119615972Y-65595532D01*
X120424094Y-65272284D01*
X118783435Y-91901624D02*
X118702622Y-92359560D01*
X119106683Y-92224873D02*
X118540998Y-92790558D01*
X118325499Y-92575059D01*
X118298561Y-92494247D01*
X118298561Y-92440372D01*
X118325499Y-92359560D01*
X118406311Y-92278748D01*
X118487123Y-92251810D01*
X118540998Y-92251810D01*
X118621810Y-92278748D01*
X118837309Y-92494247D01*
X117975312Y-92224873D02*
X118433248Y-91766937D01*
X118460186Y-91686125D01*
X118460186Y-91632250D01*
X118433248Y-91551438D01*
X118325499Y-91443688D01*
X118244687Y-91416751D01*
X118190812Y-91416751D01*
X118110000Y-91443688D01*
X117652064Y-91901624D01*
X117948375Y-91066564D02*
X117382690Y-91632250D01*
X117625126Y-90743316D01*
X117059441Y-91309001D01*
X98180592Y-92750277D02*
X98207529Y-92831089D01*
X98288341Y-92911902D01*
X98396091Y-92965776D01*
X98503841Y-92965776D01*
X98584653Y-92938839D01*
X98719340Y-92858027D01*
X98800152Y-92777215D01*
X98880964Y-92642528D01*
X98907902Y-92561715D01*
X98907902Y-92453966D01*
X98854027Y-92346216D01*
X98800152Y-92292341D01*
X98692402Y-92238467D01*
X98638528Y-92238467D01*
X98449966Y-92427028D01*
X98557715Y-92534778D01*
X98449966Y-91942155D02*
X97884280Y-92507841D01*
X97668781Y-92292341D01*
X97641844Y-92211529D01*
X97641844Y-92157654D01*
X97668781Y-92076842D01*
X97749593Y-91996030D01*
X97830406Y-91969093D01*
X97884280Y-91969093D01*
X97965093Y-91996030D01*
X98180592Y-92211529D01*
X97587969Y-91080158D02*
X97911218Y-91403407D01*
X97749593Y-91241783D02*
X97183908Y-91807468D01*
X97318595Y-91780531D01*
X97426345Y-91780531D01*
X97507157Y-91807468D01*
X96833722Y-91457282D02*
X96456598Y-91080158D01*
X97264720Y-90756910D01*
X144307309Y-93386870D02*
X144684433Y-92632622D01*
X143930186Y-93009746D01*
X143822436Y-92363248D02*
X143768561Y-92255499D01*
X143768561Y-92201624D01*
X143795499Y-92120812D01*
X143876311Y-92039999D01*
X143957123Y-92013062D01*
X144010998Y-92013062D01*
X144091810Y-92039999D01*
X144307309Y-92255499D01*
X143741624Y-92821184D01*
X143553062Y-92632622D01*
X143526125Y-92551810D01*
X143526125Y-92497935D01*
X143553062Y-92417123D01*
X143606937Y-92363248D01*
X143687749Y-92336311D01*
X143741624Y-92336311D01*
X143822436Y-92363248D01*
X144010998Y-92551810D01*
X143175938Y-92255499D02*
X143633874Y-91797563D01*
X143660812Y-91716751D01*
X143660812Y-91662876D01*
X143633874Y-91582064D01*
X143526125Y-91474314D01*
X143445312Y-91447377D01*
X143391438Y-91447377D01*
X143310625Y-91474314D01*
X142852690Y-91932250D01*
X143149001Y-91151065D02*
X143095126Y-91043316D01*
X142960439Y-90908629D01*
X142879627Y-90881691D01*
X142825752Y-90881691D01*
X142744940Y-90908629D01*
X142691065Y-90962503D01*
X142664128Y-91043316D01*
X142664128Y-91097190D01*
X142691065Y-91178003D01*
X142771877Y-91312690D01*
X142798815Y-91393502D01*
X142798815Y-91447377D01*
X142771877Y-91528189D01*
X142718003Y-91582064D01*
X142637190Y-91609001D01*
X142583316Y-91609001D01*
X142502503Y-91582064D01*
X142367816Y-91447377D01*
X142313942Y-91339627D01*
X108340592Y-66496277D02*
X108367529Y-66577089D01*
X108448341Y-66657902D01*
X108556091Y-66711776D01*
X108663841Y-66711776D01*
X108744653Y-66684839D01*
X108879340Y-66604027D01*
X108960152Y-66523215D01*
X109040964Y-66388528D01*
X109067902Y-66307715D01*
X109067902Y-66199966D01*
X109014027Y-66092216D01*
X108960152Y-66038341D01*
X108852402Y-65984467D01*
X108798528Y-65984467D01*
X108609966Y-66173028D01*
X108717715Y-66280778D01*
X108609966Y-65688155D02*
X108044280Y-66253841D01*
X107828781Y-66038341D01*
X107801844Y-65957529D01*
X107801844Y-65903654D01*
X107828781Y-65822842D01*
X107909593Y-65742030D01*
X107990406Y-65715093D01*
X108044280Y-65715093D01*
X108125093Y-65742030D01*
X108340592Y-65957529D01*
X107747969Y-64826158D02*
X108071218Y-65149407D01*
X107909593Y-64987783D02*
X107343908Y-65553468D01*
X107478595Y-65526531D01*
X107586345Y-65526531D01*
X107667157Y-65553468D01*
X107209221Y-64287410D02*
X107532470Y-64610659D01*
X107370845Y-64449035D02*
X106805160Y-65014720D01*
X106939847Y-64987783D01*
X107047597Y-64987783D01*
X107128409Y-65014720D01*
X95640592Y-66642277D02*
X95667529Y-66723089D01*
X95748341Y-66803902D01*
X95856091Y-66857776D01*
X95963841Y-66857776D01*
X96044653Y-66830839D01*
X96179340Y-66750027D01*
X96260152Y-66669215D01*
X96340964Y-66534528D01*
X96367902Y-66453715D01*
X96367902Y-66345966D01*
X96314027Y-66238216D01*
X96260152Y-66184341D01*
X96152402Y-66130467D01*
X96098528Y-66130467D01*
X95909966Y-66319028D01*
X96017715Y-66426778D01*
X95909966Y-65834155D02*
X95344280Y-66399841D01*
X95128781Y-66184341D01*
X95101844Y-66103529D01*
X95101844Y-66049654D01*
X95128781Y-65968842D01*
X95209593Y-65888030D01*
X95290406Y-65861093D01*
X95344280Y-65861093D01*
X95425093Y-65888030D01*
X95640592Y-66103529D01*
X95047969Y-64972158D02*
X95371218Y-65295407D01*
X95209593Y-65133783D02*
X94643908Y-65699468D01*
X94778595Y-65672531D01*
X94886345Y-65672531D01*
X94967157Y-65699468D01*
X93970473Y-65026033D02*
X94239847Y-65295407D01*
X94536158Y-65052971D01*
X94482284Y-65052971D01*
X94401471Y-65026033D01*
X94266784Y-64891346D01*
X94239847Y-64810534D01*
X94239847Y-64756659D01*
X94266784Y-64675847D01*
X94401471Y-64541160D01*
X94482284Y-64514223D01*
X94536158Y-64514223D01*
X94616971Y-64541160D01*
X94751658Y-64675847D01*
X94778595Y-64756659D01*
X94778595Y-64810534D01*
X123570592Y-92750277D02*
X123597529Y-92831089D01*
X123678341Y-92911902D01*
X123786091Y-92965776D01*
X123893841Y-92965776D01*
X123974653Y-92938839D01*
X124109340Y-92858027D01*
X124190152Y-92777215D01*
X124270964Y-92642528D01*
X124297902Y-92561715D01*
X124297902Y-92453966D01*
X124244027Y-92346216D01*
X124190152Y-92292341D01*
X124082402Y-92238467D01*
X124028528Y-92238467D01*
X123839966Y-92427028D01*
X123947715Y-92534778D01*
X123839966Y-91942155D02*
X123274280Y-92507841D01*
X123058781Y-92292341D01*
X123031844Y-92211529D01*
X123031844Y-92157654D01*
X123058781Y-92076842D01*
X123139593Y-91996030D01*
X123220406Y-91969093D01*
X123274280Y-91969093D01*
X123355093Y-91996030D01*
X123570592Y-92211529D01*
X122789407Y-91915218D02*
X122735532Y-91915218D01*
X122654720Y-91888280D01*
X122520033Y-91753593D01*
X122493096Y-91672781D01*
X122493096Y-91618906D01*
X122520033Y-91538094D01*
X122573908Y-91484219D01*
X122681658Y-91430345D01*
X123328155Y-91430345D01*
X122977969Y-91080158D01*
X122223722Y-91457282D02*
X121846598Y-91080158D01*
X122654720Y-90756910D01*
%TO.C,J4*%
X83748571Y-101393333D02*
X83796190Y-101250476D01*
X83843809Y-101202857D01*
X83939047Y-101155238D01*
X84081904Y-101155238D01*
X84177142Y-101202857D01*
X84224761Y-101250476D01*
X84272380Y-101345714D01*
X84272380Y-101726666D01*
X83272380Y-101726666D01*
X83272380Y-101393333D01*
X83320000Y-101298095D01*
X83367619Y-101250476D01*
X83462857Y-101202857D01*
X83558095Y-101202857D01*
X83653333Y-101250476D01*
X83700952Y-101298095D01*
X83748571Y-101393333D01*
X83748571Y-101726666D01*
X83605714Y-100298095D02*
X84272380Y-100298095D01*
X83605714Y-100726666D02*
X84129523Y-100726666D01*
X84224761Y-100679047D01*
X84272380Y-100583809D01*
X84272380Y-100440952D01*
X84224761Y-100345714D01*
X84177142Y-100298095D01*
X83605714Y-99964761D02*
X83605714Y-99583809D01*
X83272380Y-99821904D02*
X84129523Y-99821904D01*
X84224761Y-99774285D01*
X84272380Y-99679047D01*
X84272380Y-99583809D01*
X83605714Y-99393333D02*
X83605714Y-99012380D01*
X83272380Y-99250476D02*
X84129523Y-99250476D01*
X84224761Y-99202857D01*
X84272380Y-99107619D01*
X84272380Y-99012380D01*
X84272380Y-98536190D02*
X84224761Y-98631428D01*
X84177142Y-98679047D01*
X84081904Y-98726666D01*
X83796190Y-98726666D01*
X83700952Y-98679047D01*
X83653333Y-98631428D01*
X83605714Y-98536190D01*
X83605714Y-98393333D01*
X83653333Y-98298095D01*
X83700952Y-98250476D01*
X83796190Y-98202857D01*
X84081904Y-98202857D01*
X84177142Y-98250476D01*
X84224761Y-98298095D01*
X84272380Y-98393333D01*
X84272380Y-98536190D01*
X83605714Y-97774285D02*
X84272380Y-97774285D01*
X83700952Y-97774285D02*
X83653333Y-97726666D01*
X83605714Y-97631428D01*
X83605714Y-97488571D01*
X83653333Y-97393333D01*
X83748571Y-97345714D01*
X84272380Y-97345714D01*
X84272380Y-96345714D02*
X84272380Y-96917142D01*
X84272380Y-96631428D02*
X83272380Y-96631428D01*
X83415238Y-96726666D01*
X83510476Y-96821904D01*
X83558095Y-96917142D01*
%TO.C,J3*%
X147587380Y-104909523D02*
X148587380Y-104671428D01*
X147873095Y-104480952D01*
X148587380Y-104290476D01*
X147587380Y-104052380D01*
X148539761Y-103719047D02*
X148587380Y-103576190D01*
X148587380Y-103338095D01*
X148539761Y-103242857D01*
X148492142Y-103195238D01*
X148396904Y-103147619D01*
X148301666Y-103147619D01*
X148206428Y-103195238D01*
X148158809Y-103242857D01*
X148111190Y-103338095D01*
X148063571Y-103528571D01*
X148015952Y-103623809D01*
X147968333Y-103671428D01*
X147873095Y-103719047D01*
X147777857Y-103719047D01*
X147682619Y-103671428D01*
X147635000Y-103623809D01*
X147587380Y-103528571D01*
X147587380Y-103290476D01*
X147635000Y-103147619D01*
X147682619Y-102766666D02*
X147635000Y-102719047D01*
X147587380Y-102623809D01*
X147587380Y-102385714D01*
X147635000Y-102290476D01*
X147682619Y-102242857D01*
X147777857Y-102195238D01*
X147873095Y-102195238D01*
X148015952Y-102242857D01*
X148587380Y-102814285D01*
X148587380Y-102195238D01*
X148015952Y-101623809D02*
X147968333Y-101719047D01*
X147920714Y-101766666D01*
X147825476Y-101814285D01*
X147777857Y-101814285D01*
X147682619Y-101766666D01*
X147635000Y-101719047D01*
X147587380Y-101623809D01*
X147587380Y-101433333D01*
X147635000Y-101338095D01*
X147682619Y-101290476D01*
X147777857Y-101242857D01*
X147825476Y-101242857D01*
X147920714Y-101290476D01*
X147968333Y-101338095D01*
X148015952Y-101433333D01*
X148015952Y-101623809D01*
X148063571Y-101719047D01*
X148111190Y-101766666D01*
X148206428Y-101814285D01*
X148396904Y-101814285D01*
X148492142Y-101766666D01*
X148539761Y-101719047D01*
X148587380Y-101623809D01*
X148587380Y-101433333D01*
X148539761Y-101338095D01*
X148492142Y-101290476D01*
X148396904Y-101242857D01*
X148206428Y-101242857D01*
X148111190Y-101290476D01*
X148063571Y-101338095D01*
X148015952Y-101433333D01*
X148587380Y-100290476D02*
X148587380Y-100861904D01*
X148587380Y-100576190D02*
X147587380Y-100576190D01*
X147730238Y-100671428D01*
X147825476Y-100766666D01*
X147873095Y-100861904D01*
X147682619Y-99909523D02*
X147635000Y-99861904D01*
X147587380Y-99766666D01*
X147587380Y-99528571D01*
X147635000Y-99433333D01*
X147682619Y-99385714D01*
X147777857Y-99338095D01*
X147873095Y-99338095D01*
X148015952Y-99385714D01*
X148587380Y-99957142D01*
X148587380Y-99338095D01*
X148063571Y-98576190D02*
X148111190Y-98433333D01*
X148158809Y-98385714D01*
X148254047Y-98338095D01*
X148396904Y-98338095D01*
X148492142Y-98385714D01*
X148539761Y-98433333D01*
X148587380Y-98528571D01*
X148587380Y-98909523D01*
X147587380Y-98909523D01*
X147587380Y-98576190D01*
X147635000Y-98480952D01*
X147682619Y-98433333D01*
X147777857Y-98385714D01*
X147873095Y-98385714D01*
X147968333Y-98433333D01*
X148015952Y-98480952D01*
X148063571Y-98576190D01*
X148063571Y-98909523D01*
%TO.C,J0*%
X108593333Y-61364761D02*
X108736190Y-61412380D01*
X108974285Y-61412380D01*
X109069523Y-61364761D01*
X109117142Y-61317142D01*
X109164761Y-61221904D01*
X109164761Y-61126666D01*
X109117142Y-61031428D01*
X109069523Y-60983809D01*
X108974285Y-60936190D01*
X108783809Y-60888571D01*
X108688571Y-60840952D01*
X108640952Y-60793333D01*
X108593333Y-60698095D01*
X108593333Y-60602857D01*
X108640952Y-60507619D01*
X108688571Y-60460000D01*
X108783809Y-60412380D01*
X109021904Y-60412380D01*
X109164761Y-60460000D01*
X109545714Y-61364761D02*
X109688571Y-61412380D01*
X109926666Y-61412380D01*
X110021904Y-61364761D01*
X110069523Y-61317142D01*
X110117142Y-61221904D01*
X110117142Y-61126666D01*
X110069523Y-61031428D01*
X110021904Y-60983809D01*
X109926666Y-60936190D01*
X109736190Y-60888571D01*
X109640952Y-60840952D01*
X109593333Y-60793333D01*
X109545714Y-60698095D01*
X109545714Y-60602857D01*
X109593333Y-60507619D01*
X109640952Y-60460000D01*
X109736190Y-60412380D01*
X109974285Y-60412380D01*
X110117142Y-60460000D01*
X110545714Y-61412380D02*
X110545714Y-60412380D01*
X110783809Y-60412380D01*
X110926666Y-60460000D01*
X111021904Y-60555238D01*
X111069523Y-60650476D01*
X111117142Y-60840952D01*
X111117142Y-60983809D01*
X111069523Y-61174285D01*
X111021904Y-61269523D01*
X110926666Y-61364761D01*
X110783809Y-61412380D01*
X110545714Y-61412380D01*
X112069523Y-61412380D02*
X111498095Y-61412380D01*
X111783809Y-61412380D02*
X111783809Y-60412380D01*
X111688571Y-60555238D01*
X111593333Y-60650476D01*
X111498095Y-60698095D01*
X112402857Y-60412380D02*
X113021904Y-60412380D01*
X112688571Y-60793333D01*
X112831428Y-60793333D01*
X112926666Y-60840952D01*
X112974285Y-60888571D01*
X113021904Y-60983809D01*
X113021904Y-61221904D01*
X112974285Y-61317142D01*
X112926666Y-61364761D01*
X112831428Y-61412380D01*
X112545714Y-61412380D01*
X112450476Y-61364761D01*
X112402857Y-61317142D01*
X113640952Y-60412380D02*
X113736190Y-60412380D01*
X113831428Y-60460000D01*
X113879047Y-60507619D01*
X113926666Y-60602857D01*
X113974285Y-60793333D01*
X113974285Y-61031428D01*
X113926666Y-61221904D01*
X113879047Y-61317142D01*
X113831428Y-61364761D01*
X113736190Y-61412380D01*
X113640952Y-61412380D01*
X113545714Y-61364761D01*
X113498095Y-61317142D01*
X113450476Y-61221904D01*
X113402857Y-61031428D01*
X113402857Y-60793333D01*
X113450476Y-60602857D01*
X113498095Y-60507619D01*
X113545714Y-60460000D01*
X113640952Y-60412380D01*
X114831428Y-60412380D02*
X114640952Y-60412380D01*
X114545714Y-60460000D01*
X114498095Y-60507619D01*
X114402857Y-60650476D01*
X114355238Y-60840952D01*
X114355238Y-61221904D01*
X114402857Y-61317142D01*
X114450476Y-61364761D01*
X114545714Y-61412380D01*
X114736190Y-61412380D01*
X114831428Y-61364761D01*
X114879047Y-61317142D01*
X114926666Y-61221904D01*
X114926666Y-60983809D01*
X114879047Y-60888571D01*
X114831428Y-60840952D01*
X114736190Y-60793333D01*
X114545714Y-60793333D01*
X114450476Y-60840952D01*
X114402857Y-60888571D01*
X114355238Y-60983809D01*
%TO.C,J2*%
X103418095Y-52539880D02*
X103418095Y-51539880D01*
X103751428Y-52254166D01*
X104084761Y-51539880D01*
X104084761Y-52539880D01*
X104560952Y-52539880D02*
X104560952Y-51539880D01*
X104941904Y-51539880D01*
X105037142Y-51587500D01*
X105084761Y-51635119D01*
X105132380Y-51730357D01*
X105132380Y-51873214D01*
X105084761Y-51968452D01*
X105037142Y-52016071D01*
X104941904Y-52063690D01*
X104560952Y-52063690D01*
X105560952Y-51539880D02*
X105560952Y-52349404D01*
X105608571Y-52444642D01*
X105656190Y-52492261D01*
X105751428Y-52539880D01*
X105941904Y-52539880D01*
X106037142Y-52492261D01*
X106084761Y-52444642D01*
X106132380Y-52349404D01*
X106132380Y-51539880D01*
X107037142Y-51539880D02*
X106846666Y-51539880D01*
X106751428Y-51587500D01*
X106703809Y-51635119D01*
X106608571Y-51777976D01*
X106560952Y-51968452D01*
X106560952Y-52349404D01*
X106608571Y-52444642D01*
X106656190Y-52492261D01*
X106751428Y-52539880D01*
X106941904Y-52539880D01*
X107037142Y-52492261D01*
X107084761Y-52444642D01*
X107132380Y-52349404D01*
X107132380Y-52111309D01*
X107084761Y-52016071D01*
X107037142Y-51968452D01*
X106941904Y-51920833D01*
X106751428Y-51920833D01*
X106656190Y-51968452D01*
X106608571Y-52016071D01*
X106560952Y-52111309D01*
X107751428Y-51539880D02*
X107846666Y-51539880D01*
X107941904Y-51587500D01*
X107989523Y-51635119D01*
X108037142Y-51730357D01*
X108084761Y-51920833D01*
X108084761Y-52158928D01*
X108037142Y-52349404D01*
X107989523Y-52444642D01*
X107941904Y-52492261D01*
X107846666Y-52539880D01*
X107751428Y-52539880D01*
X107656190Y-52492261D01*
X107608571Y-52444642D01*
X107560952Y-52349404D01*
X107513333Y-52158928D01*
X107513333Y-51920833D01*
X107560952Y-51730357D01*
X107608571Y-51635119D01*
X107656190Y-51587500D01*
X107751428Y-51539880D01*
X108989523Y-51539880D02*
X108513333Y-51539880D01*
X108465714Y-52016071D01*
X108513333Y-51968452D01*
X108608571Y-51920833D01*
X108846666Y-51920833D01*
X108941904Y-51968452D01*
X108989523Y-52016071D01*
X109037142Y-52111309D01*
X109037142Y-52349404D01*
X108989523Y-52444642D01*
X108941904Y-52492261D01*
X108846666Y-52539880D01*
X108608571Y-52539880D01*
X108513333Y-52492261D01*
X108465714Y-52444642D01*
X109656190Y-51539880D02*
X109751428Y-51539880D01*
X109846666Y-51587500D01*
X109894285Y-51635119D01*
X109941904Y-51730357D01*
X109989523Y-51920833D01*
X109989523Y-52158928D01*
X109941904Y-52349404D01*
X109894285Y-52444642D01*
X109846666Y-52492261D01*
X109751428Y-52539880D01*
X109656190Y-52539880D01*
X109560952Y-52492261D01*
X109513333Y-52444642D01*
X109465714Y-52349404D01*
X109418095Y-52158928D01*
X109418095Y-51920833D01*
X109465714Y-51730357D01*
X109513333Y-51635119D01*
X109560952Y-51587500D01*
X109656190Y-51539880D01*
%TO.C,J1*%
X105792380Y-109904285D02*
X104792380Y-109904285D01*
X105792380Y-109332857D01*
X104792380Y-109332857D01*
X105268571Y-108856666D02*
X105268571Y-108523333D01*
X105792380Y-108380476D02*
X105792380Y-108856666D01*
X104792380Y-108856666D01*
X104792380Y-108380476D01*
X104792380Y-107761428D02*
X104792380Y-107570952D01*
X104840000Y-107475714D01*
X104935238Y-107380476D01*
X105125714Y-107332857D01*
X105459047Y-107332857D01*
X105649523Y-107380476D01*
X105744761Y-107475714D01*
X105792380Y-107570952D01*
X105792380Y-107761428D01*
X105744761Y-107856666D01*
X105649523Y-107951904D01*
X105459047Y-107999523D01*
X105125714Y-107999523D01*
X104935238Y-107951904D01*
X104840000Y-107856666D01*
X104792380Y-107761428D01*
X104792380Y-106475714D02*
X104792380Y-106666190D01*
X104840000Y-106761428D01*
X104887619Y-106809047D01*
X105030476Y-106904285D01*
X105220952Y-106951904D01*
X105601904Y-106951904D01*
X105697142Y-106904285D01*
X105744761Y-106856666D01*
X105792380Y-106761428D01*
X105792380Y-106570952D01*
X105744761Y-106475714D01*
X105697142Y-106428095D01*
X105601904Y-106380476D01*
X105363809Y-106380476D01*
X105268571Y-106428095D01*
X105220952Y-106475714D01*
X105173333Y-106570952D01*
X105173333Y-106761428D01*
X105220952Y-106856666D01*
X105268571Y-106904285D01*
X105363809Y-106951904D01*
X105792380Y-105951904D02*
X104792380Y-105951904D01*
X105506666Y-105618571D01*
X104792380Y-105285238D01*
X105792380Y-105285238D01*
X104792380Y-104951904D02*
X105792380Y-104618571D01*
X104792380Y-104285238D01*
X104887619Y-103999523D02*
X104840000Y-103951904D01*
X104792380Y-103856666D01*
X104792380Y-103618571D01*
X104840000Y-103523333D01*
X104887619Y-103475714D01*
X104982857Y-103428095D01*
X105078095Y-103428095D01*
X105220952Y-103475714D01*
X105792380Y-104047142D01*
X105792380Y-103428095D01*
D12*
%TO.C,J6*%
X102620000Y-55880000D02*
G75*
G03*
X102620000Y-55880000I-6100000J0D01*
G01*
%TO.C,J5*%
X89970000Y-62440000D02*
X89970000Y-74740000D01*
X82250000Y-62440000D02*
X85390000Y-62440000D01*
X89970000Y-74740000D02*
X87250000Y-74740000D01*
X77670000Y-74740000D02*
X77670000Y-62440000D01*
X77670000Y-62440000D02*
X80390000Y-62440000D01*
X85390000Y-74740000D02*
X82250000Y-74740000D01*
X87250000Y-62440000D02*
X89970000Y-62440000D01*
X80390000Y-74740000D02*
X77670000Y-74740000D01*
X88359050Y-68690000D02*
G75*
G03*
X88359050Y-68690000I-4579050J0D01*
G01*
%TO.C,U0*%
X142480000Y-68240000D02*
X142080000Y-68240000D01*
X117080000Y-89240000D02*
X116680000Y-89240000D01*
X93880000Y-77240000D02*
X93880000Y-77640000D01*
X93880000Y-89240000D02*
X93880000Y-82440000D01*
X101780000Y-68240000D02*
X101380000Y-68240000D01*
X134780000Y-68240000D02*
X134380000Y-68240000D01*
X144880000Y-68240000D02*
X144580000Y-68240000D01*
X129780000Y-89240000D02*
X129380000Y-89240000D01*
X111980000Y-68240000D02*
X111580000Y-68240000D01*
X99280000Y-68240000D02*
X98880000Y-68240000D01*
X111980000Y-89240000D02*
X111580000Y-89240000D01*
X137380000Y-68240000D02*
X136980000Y-68240000D01*
X104280000Y-68240000D02*
X103880000Y-68240000D01*
X139880000Y-68240000D02*
X139480000Y-68240000D01*
X109380000Y-68240000D02*
X108980000Y-68240000D01*
X144880000Y-68240000D02*
X144880000Y-89240000D01*
X93880000Y-79840000D02*
X93880000Y-80240000D01*
X124680000Y-89240000D02*
X124280000Y-89240000D01*
X96680000Y-68240000D02*
X96280000Y-68240000D01*
X117080000Y-68240000D02*
X116680000Y-68240000D01*
X104280000Y-89240000D02*
X103880000Y-89240000D01*
X114480000Y-68240000D02*
X114080000Y-68240000D01*
X142213000Y-71247000D02*
X144880000Y-71247000D01*
X122080000Y-68240000D02*
X121680000Y-68240000D01*
X122080000Y-89240000D02*
X121680000Y-89240000D01*
X127180000Y-89240000D02*
X126780000Y-89240000D01*
X142480000Y-89240000D02*
X142080000Y-89240000D01*
X106880000Y-89240000D02*
X106480000Y-89240000D01*
X132280000Y-68240000D02*
X131880000Y-68240000D01*
X93880000Y-75040000D02*
X93880000Y-68240000D01*
X124680000Y-68240000D02*
X124280000Y-68240000D01*
X99280000Y-89240000D02*
X98880000Y-89240000D01*
X139880000Y-89240000D02*
X139480000Y-89240000D01*
X114480000Y-89240000D02*
X114080000Y-89240000D01*
X134780000Y-89240000D02*
X134380000Y-89240000D01*
X109380000Y-89240000D02*
X108980000Y-89240000D01*
X132280000Y-89240000D02*
X131880000Y-89240000D01*
X119580000Y-89240000D02*
X119180000Y-89240000D01*
X129780000Y-68240000D02*
X129380000Y-68240000D01*
X119580000Y-68240000D02*
X119180000Y-68240000D01*
X96680000Y-89240000D02*
X96280000Y-89240000D01*
X137380000Y-89240000D02*
X136980000Y-89240000D01*
X142213000Y-68240000D02*
X142213000Y-71247000D01*
X144880000Y-89240000D02*
X144580000Y-89240000D01*
X101780000Y-89240000D02*
X101380000Y-89240000D01*
X106880000Y-68240000D02*
X106480000Y-68240000D01*
X127180000Y-68240000D02*
X126780000Y-68240000D01*
%TO.C,J4*%
X87250000Y-92900000D02*
X89970000Y-92900000D01*
X80390000Y-105200000D02*
X77670000Y-105200000D01*
X85390000Y-105200000D02*
X82250000Y-105200000D01*
X89970000Y-105200000D02*
X87250000Y-105200000D01*
X82250000Y-92900000D02*
X85390000Y-92900000D01*
X77670000Y-105200000D02*
X77670000Y-92900000D01*
X89970000Y-92900000D02*
X89970000Y-105200000D01*
X77670000Y-92900000D02*
X80390000Y-92900000D01*
X88439050Y-98950000D02*
G75*
G03*
X88439050Y-98950000I-4579050J0D01*
G01*
%TO.C,J3*%
X143450000Y-102870000D02*
X143450000Y-97730000D01*
X146110000Y-102870000D02*
X143450000Y-102870000D01*
X146110000Y-104140000D02*
X146110000Y-105470000D01*
X146110000Y-97730000D02*
X143450000Y-97730000D01*
X146110000Y-105470000D02*
X144780000Y-105470000D01*
X146110000Y-102870000D02*
X146110000Y-97730000D01*
%TO.C,J0*%
X118110000Y-59630000D02*
X125790000Y-59630000D01*
X115510000Y-62290000D02*
X115510000Y-60960000D01*
X118110000Y-62290000D02*
X118110000Y-59630000D01*
X125790000Y-62290000D02*
X125790000Y-59630000D01*
X118110000Y-62290000D02*
X125790000Y-62290000D01*
X116840000Y-62290000D02*
X115510000Y-62290000D01*
%TO.C,J2*%
X128860000Y-50757500D02*
X128860000Y-53417500D01*
X128860000Y-50757500D02*
X111020000Y-50757500D01*
X111020000Y-50757500D02*
X111020000Y-53417500D01*
X128860000Y-53417500D02*
X111020000Y-53417500D01*
X131460000Y-50757500D02*
X131460000Y-52087500D01*
X130130000Y-50757500D02*
X131460000Y-50757500D01*
%TO.C,J1*%
X101660000Y-111820000D02*
X100330000Y-111820000D01*
X101660000Y-101540000D02*
X99000000Y-101540000D01*
X101660000Y-109220000D02*
X99000000Y-109220000D01*
X101660000Y-110490000D02*
X101660000Y-111820000D01*
X101660000Y-109220000D02*
X101660000Y-101540000D01*
X99000000Y-109220000D02*
X99000000Y-101540000D01*
%TD*%
M02*
