%TF.GenerationSoftware,KiCad,Pcbnew,(6.0.11)*%
%TF.CreationDate,2024-03-14T23:03:51+01:00*%
%TF.ProjectId,circuit,63697263-7569-4742-9e6b-696361645f70,rev?*%
%TF.SameCoordinates,Original*%
%TF.FileFunction,Copper,L1,Top*%
%TF.FilePolarity,Positive*%
%FSLAX46Y46*%
G04 Gerber Fmt 4.6, Leading zero omitted, Abs format (unit mm)*
G04 Created by KiCad (PCBNEW (6.0.11)) date 2024-03-14 23:03:51*
%MOMM*%
%LPD*%
G01*
G04 APERTURE LIST*
%TA.AperFunction,ComponentPad*%
%ADD10R,2.000000X2.000000*%
%TD*%
%TA.AperFunction,ComponentPad*%
%ADD11C,2.000000*%
%TD*%
%TA.AperFunction,ComponentPad*%
%ADD12O,1.850000X3.048000*%
%TD*%
%TA.AperFunction,ComponentPad*%
%ADD13O,1.700000X1.700000*%
%TD*%
%TA.AperFunction,SMDPad,CuDef*%
%ADD14R,1.700000X3.500000*%
%TD*%
%TA.AperFunction,ComponentPad*%
%ADD15R,1.700000X1.700000*%
%TD*%
%TA.AperFunction,Conductor*%
%ADD16C,0.250000*%
%TD*%
G04 APERTURE END LIST*
D10*
%TO.P,J6,1,Pin_1*%
%TO.N,BUZZ*%
X100320000Y-55880000D03*
D11*
%TO.P,J6,2,Pin_2*%
%TO.N,GND*%
X92720000Y-55880000D03*
%TD*%
D12*
%TO.P,J5,1,Pin_1*%
%TO.N,GND*%
X86320000Y-74840000D03*
X86320000Y-62340000D03*
%TO.P,J5,2,Pin_2*%
%TO.N,BUT1*%
X81320000Y-62340000D03*
X81320000Y-74840000D03*
%TD*%
D13*
%TO.P,U0,1,GPIO0*%
%TO.N,unconnected-(U0-Pad1)*%
X143510000Y-69850000D03*
D14*
X143510000Y-68950000D03*
%TO.P,U0,2,GPIO1*%
%TO.N,unconnected-(U0-Pad2)*%
X140970000Y-68950000D03*
D13*
X140970000Y-69850000D03*
D15*
%TO.P,U0,3,GND*%
%TO.N,GND*%
X138430000Y-69850000D03*
D14*
X138430000Y-68950000D03*
%TO.P,U0,4,GPIO2*%
%TO.N,unconnected-(U0-Pad4)*%
X135890000Y-68950000D03*
D13*
X135890000Y-69850000D03*
D14*
%TO.P,U0,5,GPIO3*%
%TO.N,unconnected-(U0-Pad5)*%
X133350000Y-68950000D03*
D13*
X133350000Y-69850000D03*
D14*
%TO.P,U0,6,GPIO4*%
%TO.N,TX*%
X130810000Y-68950000D03*
D13*
X130810000Y-69850000D03*
%TO.P,U0,7,GPIO5*%
%TO.N,RX*%
X128270000Y-69850000D03*
D14*
X128270000Y-68950000D03*
D15*
%TO.P,U0,8,GND*%
%TO.N,GND*%
X125730000Y-69850000D03*
D14*
X125730000Y-68950000D03*
D13*
%TO.P,U0,9,GPIO6*%
%TO.N,unconnected-(U0-Pad9)*%
X123190000Y-69850000D03*
D14*
X123190000Y-68950000D03*
%TO.P,U0,10,GPIO7*%
%TO.N,unconnected-(U0-Pad10)*%
X120650000Y-68950000D03*
D13*
X120650000Y-69850000D03*
D14*
%TO.P,U0,11,GPIO8*%
%TO.N,SDA_DIS*%
X118110000Y-68950000D03*
D13*
X118110000Y-69850000D03*
%TO.P,U0,12,GPIO9*%
%TO.N,SCL_DIS*%
X115570000Y-69850000D03*
D14*
X115570000Y-68950000D03*
D15*
%TO.P,U0,13,GND*%
%TO.N,GND*%
X113030000Y-69850000D03*
D14*
X113030000Y-68950000D03*
D13*
%TO.P,U0,14,GPIO10*%
%TO.N,unconnected-(U0-Pad14)*%
X110490000Y-69850000D03*
D14*
X110490000Y-68950000D03*
D13*
%TO.P,U0,15,GPIO11*%
%TO.N,unconnected-(U0-Pad15)*%
X107950000Y-69850000D03*
D14*
X107950000Y-68950000D03*
%TO.P,U0,16,GPIO12*%
%TO.N,unconnected-(U0-Pad16)*%
X105410000Y-68950000D03*
D13*
X105410000Y-69850000D03*
%TO.P,U0,17,GPIO13*%
%TO.N,unconnected-(U0-Pad17)*%
X102870000Y-69850000D03*
D14*
X102870000Y-68950000D03*
%TO.P,U0,18,GND*%
%TO.N,GND*%
X100330000Y-68950000D03*
D15*
X100330000Y-69850000D03*
D14*
%TO.P,U0,19,GPIO14*%
%TO.N,SDA_ACC*%
X97790000Y-68950000D03*
D13*
X97790000Y-69850000D03*
D14*
%TO.P,U0,20,GPIO15*%
%TO.N,SCL_ACC*%
X95250000Y-68950000D03*
D13*
X95250000Y-69850000D03*
D14*
%TO.P,U0,21,GPIO16*%
%TO.N,unconnected-(U0-Pad21)*%
X95250000Y-88530000D03*
D13*
X95250000Y-87630000D03*
%TO.P,U0,22,GPIO17*%
%TO.N,unconnected-(U0-Pad22)*%
X97790000Y-87630000D03*
D14*
X97790000Y-88530000D03*
%TO.P,U0,23,GND*%
%TO.N,GND*%
X100330000Y-88530000D03*
D15*
X100330000Y-87630000D03*
D13*
%TO.P,U0,24,GPIO18*%
%TO.N,BUT1*%
X102870000Y-87630000D03*
D14*
X102870000Y-88530000D03*
%TO.P,U0,25,GPIO19*%
%TO.N,BUT2*%
X105410000Y-88530000D03*
D13*
X105410000Y-87630000D03*
%TO.P,U0,26,GPIO20*%
%TO.N,BUZZ*%
X107950000Y-87630000D03*
D14*
X107950000Y-88530000D03*
%TO.P,U0,27,GPIO21*%
%TO.N,LED*%
X110490000Y-88530000D03*
D13*
X110490000Y-87630000D03*
D14*
%TO.P,U0,28,GND*%
%TO.N,GND*%
X113030000Y-88530000D03*
D15*
X113030000Y-87630000D03*
D13*
%TO.P,U0,29,GPIO22*%
%TO.N,unconnected-(U0-Pad29)*%
X115570000Y-87630000D03*
D14*
X115570000Y-88530000D03*
%TO.P,U0,30,RUN*%
%TO.N,unconnected-(U0-Pad30)*%
X118110000Y-88530000D03*
D13*
X118110000Y-87630000D03*
%TO.P,U0,31,GPIO26_ADC0*%
%TO.N,unconnected-(U0-Pad31)*%
X120650000Y-87630000D03*
D14*
X120650000Y-88530000D03*
D13*
%TO.P,U0,32,GPIO27_ADC1*%
%TO.N,unconnected-(U0-Pad32)*%
X123190000Y-87630000D03*
D14*
X123190000Y-88530000D03*
%TO.P,U0,33,AGND*%
%TO.N,unconnected-(U0-Pad33)*%
X125730000Y-88530000D03*
D15*
X125730000Y-87630000D03*
D13*
%TO.P,U0,34,GPIO28_ADC2*%
%TO.N,unconnected-(U0-Pad34)*%
X128270000Y-87630000D03*
D14*
X128270000Y-88530000D03*
D13*
%TO.P,U0,35,ADC_VREF*%
%TO.N,unconnected-(U0-Pad35)*%
X130810000Y-87630000D03*
D14*
X130810000Y-88530000D03*
%TO.P,U0,36,3V3*%
%TO.N,3.3V*%
X133350000Y-88530000D03*
D13*
X133350000Y-87630000D03*
%TO.P,U0,37,3V3_EN*%
%TO.N,unconnected-(U0-Pad37)*%
X135890000Y-87630000D03*
D14*
X135890000Y-88530000D03*
D15*
%TO.P,U0,38,GND*%
%TO.N,GND*%
X138430000Y-87630000D03*
D14*
X138430000Y-88530000D03*
%TO.P,U0,39,VSYS*%
%TO.N,unconnected-(U0-Pad39)*%
X140970000Y-88530000D03*
D13*
X140970000Y-87630000D03*
D14*
%TO.P,U0,40,VBUS*%
%TO.N,5V*%
X143510000Y-88530000D03*
D13*
X143510000Y-87630000D03*
%TD*%
D12*
%TO.P,J4,1,Pin_1*%
%TO.N,GND*%
X81320000Y-92800000D03*
X81320000Y-105300000D03*
%TO.P,J4,2,Pin_2*%
%TO.N,BUT2*%
X86320000Y-105300000D03*
X86320000Y-92800000D03*
%TD*%
D15*
%TO.P,J3,1,Pin_1*%
%TO.N,GND*%
X144780000Y-104140000D03*
D13*
%TO.P,J3,2,Pin_2*%
%TO.N,LED*%
X144780000Y-101600000D03*
%TO.P,J3,3,Pin_3*%
%TO.N,5V*%
X144780000Y-99060000D03*
%TD*%
D15*
%TO.P,J0,1,Pin_1*%
%TO.N,GND*%
X116840000Y-60960000D03*
D13*
%TO.P,J0,2,Pin_2*%
%TO.N,5V*%
X119380000Y-60960000D03*
%TO.P,J0,3,Pin_3*%
%TO.N,SCL_DIS*%
X121920000Y-60960000D03*
%TO.P,J0,4,Pin_4*%
%TO.N,SDA_DIS*%
X124460000Y-60960000D03*
%TD*%
D15*
%TO.P,J2,1,Pin_1*%
%TO.N,5V*%
X130130000Y-52087500D03*
D13*
%TO.P,J2,2,Pin_2*%
%TO.N,GND*%
X127590000Y-52087500D03*
%TO.P,J2,3,Pin_3*%
%TO.N,SCL_ACC*%
X125050000Y-52087500D03*
%TO.P,J2,4,Pin_4*%
%TO.N,SDA_ACC*%
X122510000Y-52087500D03*
%TO.P,J2,5*%
%TO.N,N/C*%
X119970000Y-52087500D03*
%TO.P,J2,6*%
X117430000Y-52087500D03*
%TO.P,J2,7*%
X114890000Y-52087500D03*
%TO.P,J2,8*%
X112350000Y-52087500D03*
%TD*%
D15*
%TO.P,J1,1,Pin_1*%
%TO.N,GND*%
X100330000Y-110490000D03*
D13*
%TO.P,J1,2,Pin_2*%
%TO.N,TX*%
X100330000Y-107950000D03*
%TO.P,J1,3,Pin_3*%
%TO.N,RX*%
X100330000Y-105410000D03*
%TO.P,J1,4,Pin_4*%
%TO.N,3.3V*%
X100330000Y-102870000D03*
%TD*%
D16*
%TO.N,GND*%
X100330000Y-67310000D02*
X100330000Y-69850000D01*
X92720000Y-59700000D02*
X100330000Y-67310000D01*
X92720000Y-55880000D02*
X92720000Y-59700000D01*
X116840000Y-60960000D02*
X124537500Y-53262500D01*
X100330000Y-87630000D02*
X100330000Y-89240000D01*
X86320000Y-74840000D02*
X95340000Y-74840000D01*
X116840000Y-60960000D02*
X113030000Y-64770000D01*
X87720000Y-74840000D02*
X86320000Y-74840000D01*
X95340000Y-74840000D02*
X100330000Y-69850000D01*
X113030000Y-64770000D02*
X113030000Y-69850000D01*
X92640000Y-93980000D02*
X95590000Y-93980000D01*
X81320000Y-105300000D02*
X92640000Y-93980000D01*
X124537500Y-53262500D02*
X126415000Y-53262500D01*
X126415000Y-53262500D02*
X127590000Y-52087500D01*
X100330000Y-89240000D02*
X95590000Y-93980000D01*
%TO.N,5V*%
X144780000Y-88900000D02*
X143510000Y-87630000D01*
X144780000Y-99060000D02*
X144780000Y-88900000D01*
X130130000Y-52750000D02*
X130130000Y-52087500D01*
X119380000Y-60960000D02*
X124460000Y-55880000D01*
X129442500Y-52087500D02*
X130130000Y-52087500D01*
X127000000Y-55880000D02*
X130130000Y-52750000D01*
X124460000Y-55880000D02*
X127000000Y-55880000D01*
%TO.N,SCL_DIS*%
X115570000Y-67310000D02*
X115570000Y-69850000D01*
X121920000Y-60960000D02*
X115570000Y-67310000D01*
%TO.N,SDA_DIS*%
X118110000Y-67310000D02*
X118110000Y-69850000D01*
X124460000Y-60960000D02*
X118110000Y-67310000D01*
%TO.N,LED*%
X143055000Y-101600000D02*
X140515000Y-99060000D01*
X144780000Y-101600000D02*
X143055000Y-101600000D01*
X140515000Y-99060000D02*
X114300000Y-99060000D01*
X110490000Y-95250000D02*
X110490000Y-87630000D01*
X114300000Y-99060000D02*
X110490000Y-95250000D01*
%TO.N,BUT2*%
X105410000Y-89240000D02*
X89350000Y-105300000D01*
X89350000Y-105300000D02*
X86320000Y-105300000D01*
X105410000Y-87630000D02*
X105410000Y-89240000D01*
%TO.N,BUT1*%
X99060000Y-83820000D02*
X102870000Y-87630000D01*
X90300000Y-83820000D02*
X99060000Y-83820000D01*
X81320000Y-74840000D02*
X90300000Y-83820000D01*
%TO.N,BUZZ*%
X104140000Y-83820000D02*
X107950000Y-87630000D01*
X100320000Y-62220000D02*
X104140000Y-66040000D01*
X100320000Y-55880000D02*
X100320000Y-62220000D01*
X104140000Y-66040000D02*
X104140000Y-83820000D01*
%TD*%
M02*
