%TF.GenerationSoftware,KiCad,Pcbnew,(6.0.11)*%
%TF.CreationDate,2024-03-14T23:03:51+01:00*%
%TF.ProjectId,circuit,63697263-7569-4742-9e6b-696361645f70,rev?*%
%TF.SameCoordinates,Original*%
%TF.FileFunction,Soldermask,Top*%
%TF.FilePolarity,Negative*%
%FSLAX46Y46*%
G04 Gerber Fmt 4.6, Leading zero omitted, Abs format (unit mm)*
G04 Created by KiCad (PCBNEW (6.0.11)) date 2024-03-14 23:03:51*
%MOMM*%
%LPD*%
G01*
G04 APERTURE LIST*
%ADD10R,2.000000X2.000000*%
%ADD11C,2.000000*%
%ADD12O,1.850000X3.048000*%
%ADD13O,1.700000X1.700000*%
%ADD14R,1.700000X3.500000*%
%ADD15R,1.700000X1.700000*%
G04 APERTURE END LIST*
D10*
%TO.C,J6*%
X100320000Y-55880000D03*
D11*
X92720000Y-55880000D03*
%TD*%
D12*
%TO.C,J5*%
X86320000Y-74840000D03*
X86320000Y-62340000D03*
X81320000Y-62340000D03*
X81320000Y-74840000D03*
%TD*%
D13*
%TO.C,U0*%
X143510000Y-69850000D03*
D14*
X143510000Y-68950000D03*
X140970000Y-68950000D03*
D13*
X140970000Y-69850000D03*
D15*
X138430000Y-69850000D03*
D14*
X138430000Y-68950000D03*
X135890000Y-68950000D03*
D13*
X135890000Y-69850000D03*
D14*
X133350000Y-68950000D03*
D13*
X133350000Y-69850000D03*
D14*
X130810000Y-68950000D03*
D13*
X130810000Y-69850000D03*
X128270000Y-69850000D03*
D14*
X128270000Y-68950000D03*
D15*
X125730000Y-69850000D03*
D14*
X125730000Y-68950000D03*
D13*
X123190000Y-69850000D03*
D14*
X123190000Y-68950000D03*
X120650000Y-68950000D03*
D13*
X120650000Y-69850000D03*
D14*
X118110000Y-68950000D03*
D13*
X118110000Y-69850000D03*
X115570000Y-69850000D03*
D14*
X115570000Y-68950000D03*
D15*
X113030000Y-69850000D03*
D14*
X113030000Y-68950000D03*
D13*
X110490000Y-69850000D03*
D14*
X110490000Y-68950000D03*
D13*
X107950000Y-69850000D03*
D14*
X107950000Y-68950000D03*
X105410000Y-68950000D03*
D13*
X105410000Y-69850000D03*
X102870000Y-69850000D03*
D14*
X102870000Y-68950000D03*
X100330000Y-68950000D03*
D15*
X100330000Y-69850000D03*
D14*
X97790000Y-68950000D03*
D13*
X97790000Y-69850000D03*
D14*
X95250000Y-68950000D03*
D13*
X95250000Y-69850000D03*
D14*
X95250000Y-88530000D03*
D13*
X95250000Y-87630000D03*
X97790000Y-87630000D03*
D14*
X97790000Y-88530000D03*
X100330000Y-88530000D03*
D15*
X100330000Y-87630000D03*
D13*
X102870000Y-87630000D03*
D14*
X102870000Y-88530000D03*
X105410000Y-88530000D03*
D13*
X105410000Y-87630000D03*
X107950000Y-87630000D03*
D14*
X107950000Y-88530000D03*
X110490000Y-88530000D03*
D13*
X110490000Y-87630000D03*
D14*
X113030000Y-88530000D03*
D15*
X113030000Y-87630000D03*
D13*
X115570000Y-87630000D03*
D14*
X115570000Y-88530000D03*
X118110000Y-88530000D03*
D13*
X118110000Y-87630000D03*
X120650000Y-87630000D03*
D14*
X120650000Y-88530000D03*
D13*
X123190000Y-87630000D03*
D14*
X123190000Y-88530000D03*
X125730000Y-88530000D03*
D15*
X125730000Y-87630000D03*
D13*
X128270000Y-87630000D03*
D14*
X128270000Y-88530000D03*
D13*
X130810000Y-87630000D03*
D14*
X130810000Y-88530000D03*
X133350000Y-88530000D03*
D13*
X133350000Y-87630000D03*
X135890000Y-87630000D03*
D14*
X135890000Y-88530000D03*
D15*
X138430000Y-87630000D03*
D14*
X138430000Y-88530000D03*
X140970000Y-88530000D03*
D13*
X140970000Y-87630000D03*
D14*
X143510000Y-88530000D03*
D13*
X143510000Y-87630000D03*
%TD*%
D12*
%TO.C,J4*%
X81320000Y-92800000D03*
X81320000Y-105300000D03*
X86320000Y-105300000D03*
X86320000Y-92800000D03*
%TD*%
D15*
%TO.C,J3*%
X144780000Y-104140000D03*
D13*
X144780000Y-101600000D03*
X144780000Y-99060000D03*
%TD*%
D15*
%TO.C,J0*%
X116840000Y-60960000D03*
D13*
X119380000Y-60960000D03*
X121920000Y-60960000D03*
X124460000Y-60960000D03*
%TD*%
D15*
%TO.C,J2*%
X130130000Y-52087500D03*
D13*
X127590000Y-52087500D03*
X125050000Y-52087500D03*
X122510000Y-52087500D03*
X119970000Y-52087500D03*
X117430000Y-52087500D03*
X114890000Y-52087500D03*
X112350000Y-52087500D03*
%TD*%
D15*
%TO.C,J1*%
X100330000Y-110490000D03*
D13*
X100330000Y-107950000D03*
X100330000Y-105410000D03*
X100330000Y-102870000D03*
%TD*%
M02*
